<svg width="1337" height="6364" viewBox="0 0 1337 6364" fill="none" xmlns="http://www.w3.org/2000/svg">
<path fill-rule="evenodd" clip-rule="evenodd" d="M33.748 3182V3158.5H0V3157.5H33.748V3092H0V3091H33.748V3025H0V3024H33.748V2958.5H0V2957.5H33.748V2891.5H0V2890.5H33.748V2825H0V2824H33.748V2758H0V2757H33.748V2691.5H0V2690.5H33.748V2624.5H0V2623.5H33.748V2558H0V2557H33.748V2491H0V2490H33.748V2424.5H0V2423.5H33.748V2357.5H0V2356.5H33.748V2291H0V2290H33.748V2224H0V2223H33.748V2157.5H0V2156.5H33.748V2090.5H0V2089.5H33.748V2024H0V2023H33.748V1957H0V1956H33.748V1890.5H0V1889.5H33.748V1823.5H0V1822.5H33.748V1757H0V1756H33.748V1690H0V1689H33.748V1623.5H0V1622.5H33.748V1591H34.748V1622.5H100.248V1591H101.248V1622.5H167.248V1591H168.248V1622.5H233.748V1591H234.748V1622.5H300.748V1591H301.748V1622.5H367.248V1591H368.248V1622.5H434.248V1591H435.248V1622.5H500.748V1591H501.748V1622.5H567.748V1591H568.748V1622.5H634.248V1591H635.248V1622.5H701.248V1591H702.248V1622.5H767.748V1591H768.748V1622.5H834.748V1591H835.748V1622.5H901.248V1591H902.248V1622.5H968.248V1591H969.248V1622.5H1034.75V1591H1035.75V1622.5H1101.75V1591H1102.75V1622.5H1168.25V1591H1169.25V1622.5H1235.25V1591H1236.25V1622.5H1301.75V1591H1302.75V1622.5H1336.5V1623.5H1302.75V1689H1336.5V1690H1302.75V1756H1336.5V1757H1302.75V1822.5H1336.5V1823.5H1302.75V1889.5H1336.5V1890.5H1302.75V1956H1336.5V1957H1302.75V2023H1336.5V2024H1302.75V2089.5H1336.5V2090.5H1302.75V2156.5H1336.5V2157.5H1302.75V2223H1336.5V2224H1302.75V2290H1336.5V2291H1302.75V2356.5H1336.5V2357.5H1302.75V2423.5H1336.5V2424.5H1302.75V2490H1336.5V2491H1302.75V2557H1336.5V2558H1302.75V2623.5H1336.5V2624.5H1302.75V2690.5H1336.5V2691.5H1302.75V2757H1336.5V2758H1302.75V2824H1336.5V2825H1302.75V2890.5H1336.5V2891.5H1302.75V2957.5H1336.5V2958.5H1302.75V3024H1336.5V3025H1302.75V3091H1336.5V3092H1302.75V3157.5H1336.5V3158.5H1302.75V3182H1301.75V3158.5H1236.25V3182H1235.25V3158.5H1169.25V3182H1168.25V3158.5H1102.75V3182H1101.75V3158.5H1035.75V3182H1034.75V3158.5H969.248V3182H968.248V3158.5H902.248V3182H901.248V3158.5H835.748V3182H834.748V3158.5H768.748V3182H767.748V3158.5H702.248V3182H701.248V3158.5H635.248V3182H634.248V3158.5H568.748V3182H567.748V3158.5H501.748V3182H500.748V3158.5H435.248V3182H434.248V3158.5H368.248V3182H367.248V3158.5H301.748V3182H300.748V3158.5H234.748V3182H233.748V3158.5H168.248V3182H167.248V3158.5H101.248V3182H100.248V3158.5H34.748V3182H33.748ZM1301.75 3157.5V3092H1236.25V3157.5H1301.75ZM1301.75 3091V3025H1236.25V3091H1301.75ZM1301.75 3024V2958.5H1236.25V3024H1301.75ZM1301.75 2957.5V2891.5H1236.25V2957.5H1301.75ZM1301.75 2890.5V2825H1236.25V2890.5H1301.75ZM1301.75 2824V2758H1236.25V2824H1301.75ZM1301.75 2757V2691.5H1236.25V2757H1301.75ZM1301.75 2690.5V2624.5H1236.25V2690.5H1301.75ZM1301.75 2623.5V2558H1236.25V2623.5H1301.75ZM1301.75 2557V2491H1236.25V2557H1301.75ZM1301.75 2490V2424.5H1236.25V2490H1301.75ZM1301.75 2423.5V2357.5H1236.25V2423.5H1301.75ZM1301.75 2356.5V2291H1236.25V2356.5H1301.75ZM1301.75 2290V2224H1236.25V2290H1301.75ZM1301.75 2223V2157.5H1236.25V2223H1301.75ZM1301.75 2156.5V2090.5H1236.25V2156.5H1301.75ZM1301.75 2089.5V2024H1236.25V2089.5H1301.75ZM1301.75 2023V1957H1236.25V2023H1301.75ZM1301.75 1956V1890.5H1236.25V1956H1301.75ZM1301.75 1889.5V1823.5H1236.25V1889.5H1301.75ZM1301.75 1822.5V1757H1236.25V1822.5H1301.75ZM1301.75 1756V1690H1236.25V1756H1301.75ZM1301.75 1689V1623.5H1236.25V1689H1301.75ZM1102.75 1623.5H1168.25V1689H1102.75V1623.5ZM1102.75 1690H1168.25V1756H1102.75V1690ZM1169.25 1690V1756H1235.25V1690H1169.25ZM1102.75 1757H1168.25V1822.5H1102.75V1757ZM1169.25 1757V1822.5H1235.25V1757H1169.25ZM1102.75 1823.5H1168.25V1889.5H1102.75V1823.5ZM1169.25 1823.5V1889.5H1235.25V1823.5H1169.25ZM1102.75 1890.5H1168.25V1956H1102.75V1890.5ZM1169.25 1890.5V1956H1235.25V1890.5H1169.25ZM1102.75 1957H1168.25V2023H1102.75V1957ZM1169.25 1957V2023H1235.25V1957H1169.25ZM1102.75 2024H1168.25V2089.5H1102.75V2024ZM1169.25 2024V2089.5H1235.25V2024H1169.25ZM1102.75 2090.5H1168.25V2156.5H1102.75V2090.5ZM1169.25 2090.5V2156.5H1235.25V2090.5H1169.25ZM1102.75 2157.5H1168.25V2223H1102.75V2157.5ZM1169.25 2157.5V2223H1235.25V2157.5H1169.25ZM1102.75 2224H1168.25V2290H1102.75V2224ZM1169.25 2224V2290H1235.25V2224H1169.25ZM1102.75 2291H1168.25V2356.5H1102.75V2291ZM1169.25 2291V2356.5H1235.25V2291H1169.25ZM1102.75 2357.5H1168.25V2423.5H1102.75V2357.5ZM1169.25 2357.5V2423.5H1235.25V2357.5H1169.25ZM1102.75 2424.5H1168.25V2490H1102.75V2424.5ZM1169.25 2424.5V2490H1235.25V2424.5H1169.25ZM1102.75 2491H1168.25V2557H1102.75V2491ZM1169.25 2491V2557H1235.25V2491H1169.25ZM1102.75 2558H1168.25V2623.5H1102.75V2558ZM1169.25 2558V2623.5H1235.25V2558H1169.25ZM1102.75 2624.5H1168.25V2690.5H1102.75V2624.5ZM1169.25 2624.5V2690.5H1235.25V2624.5H1169.25ZM1102.75 2691.5H1168.25V2757H1102.75V2691.5ZM1169.25 2691.5V2757H1235.25V2691.5H1169.25ZM1102.75 2758H1168.25V2824H1102.75V2758ZM1169.25 2758V2824H1235.25V2758H1169.25ZM1102.75 2825H1168.25V2890.5H1102.75V2825ZM1169.25 2825V2890.5H1235.25V2825H1169.25ZM1102.75 2891.5H1168.25V2957.5H1102.75V2891.5ZM1169.25 2891.5V2957.5H1235.25V2891.5H1169.25ZM1102.75 2958.5H1168.25V3024H1102.75V2958.5ZM1169.25 2958.5V3024H1235.25V2958.5H1169.25ZM1102.75 3025H1168.25V3091H1102.75V3025ZM1169.25 3025V3091H1235.25V3025H1169.25ZM1102.75 3092H1168.25V3157.5H1102.75V3092ZM1169.25 3092V3157.5H1235.25V3092H1169.25ZM1169.25 1623.5V1689H1235.25V1623.5H1169.25ZM1035.75 3157.5H1101.75V3092H1035.75V3157.5ZM1034.75 3092V3157.5H969.248V3092H1034.75ZM1035.75 3091H1101.75V3025H1035.75V3091ZM1034.75 3025V3091H969.248V3025H1034.75ZM1035.75 3024H1101.75V2958.5H1035.75V3024ZM1034.75 2958.5V3024H969.248V2958.5H1034.75ZM1035.75 2957.5H1101.75V2891.5H1035.75V2957.5ZM1034.75 2891.5V2957.5H969.248V2891.5H1034.75ZM1035.75 2890.5H1101.75V2825H1035.75V2890.5ZM1034.75 2825V2890.5H969.248V2825H1034.75ZM1035.75 2824H1101.75V2758H1035.75V2824ZM1034.75 2758V2824H969.248V2758H1034.75ZM1035.75 2757H1101.75V2691.5H1035.75V2757ZM1034.75 2691.5V2757H969.248V2691.5H1034.75ZM1035.75 2690.5H1101.75V2624.5H1035.75V2690.5ZM1034.75 2624.5V2690.5H969.248V2624.5H1034.75ZM1035.75 2623.5H1101.75V2558H1035.75V2623.5ZM1034.75 2558V2623.5H969.248V2558H1034.75ZM1035.75 2557H1101.75V2491H1035.75V2557ZM1034.75 2491V2557H969.248V2491H1034.75ZM1035.75 2490H1101.75V2424.5H1035.75V2490ZM1034.75 2424.5V2490H969.248V2424.5H1034.75ZM1035.75 2423.5H1101.75V2357.5H1035.75V2423.5ZM1034.75 2357.5V2423.5H969.248V2357.5H1034.75ZM1035.75 2356.5H1101.75V2291H1035.75V2356.5ZM1034.75 2291V2356.5H969.248V2291H1034.75ZM1035.75 2290H1101.75V2224H1035.75V2290ZM1034.75 2224V2290H969.248V2224H1034.75ZM1035.75 2223H1101.75V2157.5H1035.75V2223ZM1034.75 2157.5V2223H969.248V2157.5H1034.75ZM1035.75 2156.5H1101.75V2090.5H1035.75V2156.5ZM1034.75 2090.5V2156.5H969.248V2090.5H1034.75ZM1035.75 2089.5H1101.75V2024H1035.75V2089.5ZM1034.75 2024V2089.5H969.248V2024H1034.75ZM1035.75 2023H1101.75V1957H1035.75V2023ZM1034.75 1957V2023H969.248V1957H1034.75ZM1035.75 1956H1101.75V1890.5H1035.75V1956ZM1034.75 1890.5V1956H969.248V1890.5H1034.75ZM1035.75 1889.5H1101.75V1823.5H1035.75V1889.5ZM1034.75 1823.5V1889.5H969.248V1823.5H1034.75ZM1035.75 1822.5H1101.75V1757H1035.75V1822.5ZM1034.75 1757V1822.5H969.248V1757H1034.75ZM1035.75 1756H1101.75V1690H1035.75V1756ZM1034.75 1690V1756H969.248V1690H1034.75ZM1035.75 1689H1101.75V1623.5H1035.75V1689ZM1034.75 1623.5V1689H969.248V1623.5H1034.75ZM835.748 1623.5H901.248V1689H835.748V1623.5ZM835.748 1690H901.248V1756H835.748V1690ZM902.248 1690V1756H968.248V1690H902.248ZM835.748 1757H901.248V1822.5H835.748V1757ZM902.248 1757V1822.5H968.248V1757H902.248ZM835.748 1823.5H901.248V1889.5H835.748V1823.5ZM902.248 1823.5V1889.5H968.248V1823.5H902.248ZM835.748 1890.5H901.248V1956H835.748V1890.5ZM902.248 1890.5V1956H968.248V1890.5H902.248ZM835.748 1957H901.248V2023H835.748V1957ZM902.248 1957V2023H968.248V1957H902.248ZM835.748 2024H901.248V2089.5H835.748V2024ZM902.248 2024V2089.5H968.248V2024H902.248ZM835.748 2090.5H901.248V2156.5H835.748V2090.5ZM902.248 2090.5V2156.5H968.248V2090.5H902.248ZM835.748 2157.5H901.248V2223H835.748V2157.5ZM902.248 2157.5V2223H968.248V2157.5H902.248ZM835.748 2224H901.248V2290H835.748V2224ZM902.248 2224V2290H968.248V2224H902.248ZM835.748 2291H901.248V2356.5H835.748V2291ZM902.248 2291V2356.5H968.248V2291H902.248ZM835.748 2357.5H901.248V2423.5H835.748V2357.5ZM902.248 2357.5V2423.5H968.248V2357.5H902.248ZM835.748 2424.5H901.248V2490H835.748V2424.5ZM902.248 2424.5V2490H968.248V2424.5H902.248ZM835.748 2491H901.248V2557H835.748V2491ZM902.248 2491V2557H968.248V2491H902.248ZM835.748 2558H901.248V2623.5H835.748V2558ZM902.248 2558V2623.5H968.248V2558H902.248ZM835.748 2624.5H901.248V2690.5H835.748V2624.5ZM902.248 2624.5V2690.5H968.248V2624.5H902.248ZM835.748 2691.5H901.248V2757H835.748V2691.5ZM902.248 2691.5V2757H968.248V2691.5H902.248ZM835.748 2758H901.248V2824H835.748V2758ZM902.248 2758V2824H968.248V2758H902.248ZM835.748 2825H901.248V2890.5H835.748V2825ZM902.248 2825V2890.5H968.248V2825H902.248ZM835.748 2891.5H901.248V2957.5H835.748V2891.5ZM902.248 2891.5V2957.5H968.248V2891.5H902.248ZM835.748 2958.5H901.248V3024H835.748V2958.5ZM902.248 2958.5V3024H968.248V2958.5H902.248ZM835.748 3025H901.248V3091H835.748V3025ZM902.248 3025V3091H968.248V3025H902.248ZM835.748 3092H901.248V3157.5H835.748V3092ZM902.248 3092V3157.5H968.248V3092H902.248ZM902.248 1623.5V1689H968.248V1623.5H902.248ZM768.748 3157.5H834.748V3092H768.748V3157.5ZM767.748 3092V3157.5H702.248V3092H767.748ZM768.748 3091H834.748V3025H768.748V3091ZM767.748 3025V3091H702.248V3025H767.748ZM768.748 3024H834.748V2958.5H768.748V3024ZM767.748 2958.5V3024H702.248V2958.5H767.748ZM768.748 2957.5H834.748V2891.5H768.748V2957.5ZM767.748 2891.5V2957.5H702.248V2891.5H767.748ZM768.748 2890.5H834.748V2825H768.748V2890.5ZM767.748 2825V2890.5H702.248V2825H767.748ZM768.748 2824H834.748V2758H768.748V2824ZM767.748 2758V2824H702.248V2758H767.748ZM768.748 2757H834.748V2691.5H768.748V2757ZM767.748 2691.5V2757H702.248V2691.5H767.748ZM768.748 2690.5H834.748V2624.5H768.748V2690.5ZM767.748 2624.5V2690.5H702.248V2624.5H767.748ZM768.748 2623.5H834.748V2558H768.748V2623.5ZM767.748 2558V2623.5H702.248V2558H767.748ZM768.748 2557H834.748V2491H768.748V2557ZM767.748 2491V2557H702.248V2491H767.748ZM768.748 2490H834.748V2424.5H768.748V2490ZM767.748 2424.5V2490H702.248V2424.5H767.748ZM768.748 2423.5H834.748V2357.5H768.748V2423.5ZM767.748 2357.5V2423.5H702.248V2357.5H767.748ZM768.748 2356.5H834.748V2291H768.748V2356.5ZM767.748 2291V2356.5H702.248V2291H767.748ZM768.748 2290H834.748V2224H768.748V2290ZM767.748 2224V2290H702.248V2224H767.748ZM768.748 2223H834.748V2157.5H768.748V2223ZM767.748 2157.5V2223H702.248V2157.5H767.748ZM768.748 2156.5H834.748V2090.5H768.748V2156.5ZM767.748 2090.5V2156.5H702.248V2090.5H767.748ZM768.748 2089.5H834.748V2024H768.748V2089.5ZM767.748 2024V2089.5H702.248V2024H767.748ZM768.748 2023H834.748V1957H768.748V2023ZM767.748 1957V2023H702.248V1957H767.748ZM768.748 1956H834.748V1890.5H768.748V1956ZM767.748 1890.5V1956H702.248V1890.5H767.748ZM768.748 1889.5H834.748V1823.5H768.748V1889.5ZM767.748 1823.5V1889.5H702.248V1823.5H767.748ZM768.748 1822.5H834.748V1757H768.748V1822.5ZM767.748 1757V1822.5H702.248V1757H767.748ZM768.748 1756H834.748V1690H768.748V1756ZM767.748 1690V1756H702.248V1690H767.748ZM768.748 1689H834.748V1623.5H768.748V1689ZM767.748 1623.5V1689H702.248V1623.5H767.748ZM568.748 1623.5H634.248V1689H568.748V1623.5ZM568.748 1690H634.248V1756H568.748V1690ZM635.248 1690V1756H701.248V1690H635.248ZM568.748 1757H634.248V1822.5H568.748V1757ZM635.248 1757V1822.5H701.248V1757H635.248ZM568.748 1823.5H634.248V1889.5H568.748V1823.5ZM635.248 1823.5V1889.5H701.248V1823.5H635.248ZM568.748 1890.5H634.248V1956H568.748V1890.5ZM635.248 1890.5V1956H701.248V1890.5H635.248ZM568.748 1957H634.248V2023H568.748V1957ZM635.248 1957V2023H701.248V1957H635.248ZM568.748 2024H634.248V2089.5H568.748V2024ZM635.248 2024V2089.5H701.248V2024H635.248ZM568.748 2090.5H634.248V2156.5H568.748V2090.5ZM635.248 2090.5V2156.5H701.248V2090.5H635.248ZM568.748 2157.5H634.248V2223H568.748V2157.5ZM635.248 2157.5V2223H701.248V2157.5H635.248ZM568.748 2224H634.248V2290H568.748V2224ZM635.248 2224V2290H701.248V2224H635.248ZM568.748 2291H634.248V2356.5H568.748V2291ZM635.248 2291V2356.5H701.248V2291H635.248ZM568.748 2357.5H634.248V2423.5H568.748V2357.5ZM635.248 2357.5V2423.5H701.248V2357.5H635.248ZM568.748 2424.5H634.248V2490H568.748V2424.5ZM635.248 2424.5V2490H701.248V2424.5H635.248ZM568.748 2491H634.248V2557H568.748V2491ZM635.248 2491V2557H701.248V2491H635.248ZM568.748 2558H634.248V2623.5H568.748V2558ZM635.248 2558V2623.5H701.248V2558H635.248ZM568.748 2624.5H634.248V2690.5H568.748V2624.5ZM635.248 2624.5V2690.5H701.248V2624.5H635.248ZM568.748 2691.5H634.248V2757H568.748V2691.5ZM635.248 2691.5V2757H701.248V2691.5H635.248ZM568.748 2758H634.248V2824H568.748V2758ZM635.248 2758V2824H701.248V2758H635.248ZM568.748 2825H634.248V2890.5H568.748V2825ZM635.248 2825V2890.5H701.248V2825H635.248ZM568.748 2891.5H634.248V2957.5H568.748V2891.5ZM635.248 2891.5V2957.5H701.248V2891.5H635.248ZM568.748 2958.5H634.248V3024H568.748V2958.5ZM635.248 2958.5V3024H701.248V2958.5H635.248ZM568.748 3025H634.248V3091H568.748V3025ZM635.248 3025V3091H701.248V3025H635.248ZM568.748 3092H634.248V3157.5H568.748V3092ZM635.248 3092V3157.5H701.248V3092H635.248ZM635.248 1623.5V1689H701.248V1623.5H635.248ZM501.748 3157.5H567.748V3092H501.748V3157.5ZM500.748 3092V3157.5H435.248V3092H500.748ZM501.748 3091H567.748V3025H501.748V3091ZM500.748 3025V3091H435.248V3025H500.748ZM501.748 3024H567.748V2958.5H501.748V3024ZM500.748 2958.5V3024H435.248V2958.5H500.748ZM501.748 2957.5H567.748V2891.5H501.748V2957.5ZM500.748 2891.5V2957.5H435.248V2891.5H500.748ZM501.748 2890.5H567.748V2825H501.748V2890.5ZM500.748 2825V2890.5H435.248V2825H500.748ZM501.748 2824H567.748V2758H501.748V2824ZM500.748 2758V2824H435.248V2758H500.748ZM501.748 2757H567.748V2691.5H501.748V2757ZM500.748 2691.5V2757H435.248V2691.5H500.748ZM501.748 2690.5H567.748V2624.5H501.748V2690.5ZM500.748 2624.5V2690.5H435.248V2624.5H500.748ZM501.748 2623.5H567.748V2558H501.748V2623.5ZM500.748 2558V2623.5H435.248V2558H500.748ZM501.748 2557H567.748V2491H501.748V2557ZM500.748 2491V2557H435.248V2491H500.748ZM501.748 2490H567.748V2424.5H501.748V2490ZM500.748 2424.5V2490H435.248V2424.5H500.748ZM501.748 2423.5H567.748V2357.5H501.748V2423.5ZM500.748 2357.5V2423.5H435.248V2357.5H500.748ZM501.748 2356.5H567.748V2291H501.748V2356.5ZM500.748 2291V2356.5H435.248V2291H500.748ZM501.748 2290H567.748V2224H501.748V2290ZM500.748 2224V2290H435.248V2224H500.748ZM501.748 2223H567.748V2157.5H501.748V2223ZM500.748 2157.5V2223H435.248V2157.5H500.748ZM501.748 2156.5H567.748V2090.5H501.748V2156.5ZM500.748 2090.5V2156.5H435.248V2090.5H500.748ZM501.748 2089.5H567.748V2024H501.748V2089.5ZM500.748 2024V2089.5H435.248V2024H500.748ZM501.748 2023H567.748V1957H501.748V2023ZM500.748 1957V2023H435.248V1957H500.748ZM501.748 1956H567.748V1890.5H501.748V1956ZM500.748 1890.5V1956H435.248V1890.5H500.748ZM501.748 1889.5H567.748V1823.5H501.748V1889.5ZM500.748 1823.5V1889.5H435.248V1823.5H500.748ZM501.748 1822.5H567.748V1757H501.748V1822.5ZM500.748 1757V1822.5H435.248V1757H500.748ZM501.748 1756H567.748V1690H501.748V1756ZM500.748 1690V1756H435.248V1690H500.748ZM501.748 1689H567.748V1623.5H501.748V1689ZM500.748 1623.5V1689H435.248V1623.5H500.748ZM301.748 1623.5H367.248V1689H301.748V1623.5ZM301.748 1690H367.248V1756H301.748V1690ZM368.248 1690V1756H434.248V1690H368.248ZM301.748 1757H367.248V1822.5H301.748V1757ZM368.248 1757V1822.5H434.248V1757H368.248ZM301.748 1823.5H367.248V1889.5H301.748V1823.5ZM368.248 1823.5V1889.5H434.248V1823.5H368.248ZM301.748 1890.5H367.248V1956H301.748V1890.5ZM368.248 1890.5V1956H434.248V1890.5H368.248ZM301.748 1957H367.248V2023H301.748V1957ZM368.248 1957V2023H434.248V1957H368.248ZM301.748 2024H367.248V2089.5H301.748V2024ZM368.248 2024V2089.5H434.248V2024H368.248ZM301.748 2090.5H367.248V2156.5H301.748V2090.5ZM368.248 2090.5V2156.5H434.248V2090.5H368.248ZM301.748 2157.5H367.248V2223H301.748V2157.5ZM368.248 2157.5V2223H434.248V2157.5H368.248ZM301.748 2224H367.248V2290H301.748V2224ZM368.248 2224V2290H434.248V2224H368.248ZM301.748 2291H367.248V2356.5H301.748V2291ZM368.248 2291V2356.5H434.248V2291H368.248ZM301.748 2357.5H367.248V2423.5H301.748V2357.5ZM368.248 2357.5V2423.5H434.248V2357.5H368.248ZM301.748 2424.5H367.248V2490H301.748V2424.5ZM368.248 2424.5V2490H434.248V2424.5H368.248ZM301.748 2491H367.248V2557H301.748V2491ZM368.248 2491V2557H434.248V2491H368.248ZM301.748 2558H367.248V2623.5H301.748V2558ZM368.248 2558V2623.5H434.248V2558H368.248ZM301.748 2624.5H367.248V2690.5H301.748V2624.5ZM368.248 2624.5V2690.5H434.248V2624.5H368.248ZM301.748 2691.5H367.248V2757H301.748V2691.5ZM368.248 2691.5V2757H434.248V2691.5H368.248ZM301.748 2758H367.248V2824H301.748V2758ZM368.248 2758V2824H434.248V2758H368.248ZM301.748 2825H367.248V2890.5H301.748V2825ZM368.248 2825V2890.5H434.248V2825H368.248ZM301.748 2891.5H367.248V2957.5H301.748V2891.5ZM368.248 2891.5V2957.5H434.248V2891.5H368.248ZM301.748 2958.5H367.248V3024H301.748V2958.5ZM368.248 2958.5V3024H434.248V2958.5H368.248ZM301.748 3025H367.248V3091H301.748V3025ZM368.248 3025V3091H434.248V3025H368.248ZM301.748 3092H367.248V3157.5H301.748V3092ZM368.248 3092V3157.5H434.248V3092H368.248ZM368.248 1623.5V1689H434.248V1623.5H368.248ZM234.748 3157.5H300.748V3092H234.748V3157.5ZM233.748 3092V3157.5H168.248V3092H233.748ZM234.748 3091H300.748V3025H234.748V3091ZM233.748 3025V3091H168.248V3025H233.748ZM234.748 3024H300.748V2958.5H234.748V3024ZM233.748 2958.5V3024H168.248V2958.5H233.748ZM234.748 2957.5H300.748V2891.5H234.748V2957.5ZM233.748 2891.5V2957.5H168.248V2891.5H233.748ZM234.748 2890.5H300.748V2825H234.748V2890.5ZM233.748 2825V2890.5H168.248V2825H233.748ZM234.748 2824H300.748V2758H234.748V2824ZM233.748 2758V2824H168.248V2758H233.748ZM234.748 2757H300.748V2691.5H234.748V2757ZM233.748 2691.5V2757H168.248V2691.5H233.748ZM234.748 2690.5H300.748V2624.5H234.748V2690.5ZM233.748 2624.5V2690.5H168.248V2624.5H233.748ZM234.748 2623.5H300.748V2558H234.748V2623.5ZM233.748 2558V2623.5H168.248V2558H233.748ZM234.748 2557H300.748V2491H234.748V2557ZM233.748 2491V2557H168.248V2491H233.748ZM234.748 2490H300.748V2424.5H234.748V2490ZM233.748 2424.5V2490H168.248V2424.5H233.748ZM234.748 2423.5H300.748V2357.5H234.748V2423.5ZM233.748 2357.5V2423.5H168.248V2357.5H233.748ZM234.748 2356.5H300.748V2291H234.748V2356.5ZM233.748 2291V2356.5H168.248V2291H233.748ZM234.748 2290H300.748V2224H234.748V2290ZM233.748 2224V2290H168.248V2224H233.748ZM234.748 2223H300.748V2157.5H234.748V2223ZM233.748 2157.5V2223H168.248V2157.5H233.748ZM234.748 2156.5H300.748V2090.5H234.748V2156.5ZM233.748 2090.5V2156.5H168.248V2090.5H233.748ZM234.748 2089.5H300.748V2024H234.748V2089.5ZM233.748 2024V2089.5H168.248V2024H233.748ZM234.748 2023H300.748V1957H234.748V2023ZM233.748 1957V2023H168.248V1957H233.748ZM234.748 1956H300.748V1890.5H234.748V1956ZM233.748 1890.5V1956H168.248V1890.5H233.748ZM234.748 1889.5H300.748V1823.5H234.748V1889.5ZM233.748 1823.5V1889.5H168.248V1823.5H233.748ZM234.748 1822.5H300.748V1757H234.748V1822.5ZM233.748 1757V1822.5H168.248V1757H233.748ZM234.748 1756H300.748V1690H234.748V1756ZM233.748 1690V1756H168.248V1690H233.748ZM234.748 1689H300.748V1623.5H234.748V1689ZM233.748 1623.5V1689H168.248V1623.5H233.748ZM34.748 1623.5H100.248V1689H34.748V1623.5ZM34.748 1690H100.248V1756H34.748V1690ZM101.248 1690V1756H167.248V1690H101.248ZM34.748 1757H100.248V1822.5H34.748V1757ZM101.248 1757V1822.5H167.248V1757H101.248ZM34.748 1823.5H100.248V1889.5H34.748V1823.5ZM101.248 1823.5V1889.5H167.248V1823.5H101.248ZM34.748 1890.5H100.248V1956H34.748V1890.5ZM101.248 1890.5V1956H167.248V1890.5H101.248ZM34.748 1957H100.248V2023H34.748V1957ZM101.248 1957V2023H167.248V1957H101.248ZM34.748 2024H100.248V2089.5H34.748V2024ZM101.248 2024V2089.5H167.248V2024H101.248ZM34.748 2090.5H100.248V2156.5H34.748V2090.5ZM101.248 2090.5V2156.5H167.248V2090.5H101.248ZM34.748 2157.5H100.248V2223H34.748V2157.5ZM101.248 2157.5V2223H167.248V2157.5H101.248ZM34.748 2224H100.248V2290H34.748V2224ZM101.248 2224V2290H167.248V2224H101.248ZM34.748 2291H100.248V2356.5H34.748V2291ZM101.248 2291V2356.5H167.248V2291H101.248ZM34.748 2357.5H100.248V2423.5H34.748V2357.5ZM101.248 2357.5V2423.5H167.248V2357.5H101.248ZM34.748 2424.5H100.248V2490H34.748V2424.5ZM101.248 2424.5V2490H167.248V2424.5H101.248ZM34.748 2491H100.248V2557H34.748V2491ZM101.248 2491V2557H167.248V2491H101.248ZM34.748 2558H100.248V2623.5H34.748V2558ZM101.248 2558V2623.5H167.248V2558H101.248ZM34.748 2624.5H100.248V2690.5H34.748V2624.5ZM101.248 2624.5V2690.5H167.248V2624.5H101.248ZM34.748 2691.5H100.248V2757H34.748V2691.5ZM101.248 2691.5V2757H167.248V2691.5H101.248ZM34.748 2758H100.248V2824H34.748V2758ZM101.248 2758V2824H167.248V2758H101.248ZM34.748 2825H100.248V2890.5H34.748V2825ZM101.248 2825V2890.5H167.248V2825H101.248ZM34.748 2891.5H100.248V2957.5H34.748V2891.5ZM101.248 2891.5V2957.5H167.248V2891.5H101.248ZM34.748 2958.5H100.248V3024H34.748V2958.5ZM101.248 2958.5V3024H167.248V2958.5H101.248ZM34.748 3025H100.248V3091H34.748V3025ZM101.248 3025V3091H167.248V3025H101.248ZM34.748 3092H100.248V3157.5H34.748V3092ZM101.248 3092V3157.5H167.248V3092H101.248ZM101.248 1623.5V1689H167.248V1623.5H101.248Z" fill="url(#paint0_linear_3915_833)"/>
<path fill-rule="evenodd" clip-rule="evenodd" d="M33.748 4773V4749.5H0V4748.5H33.748V4683H0V4682H33.748V4616H0V4615H33.748V4549.5H0V4548.5H33.748V4482.5H0V4481.5H33.748V4416H0V4415H33.748V4349H0V4348H33.748V4282.5H0V4281.5H33.748V4215.5H0V4214.5H33.748V4149H0V4148H33.748V4082H0V4081H33.748V4015.5H0V4014.5H33.748V3948.5H0V3947.5H33.748V3882H0V3881H33.748V3815H0V3814H33.748V3748.5H0V3747.5H33.748V3681.5H0V3680.5H33.748V3615H0V3614H33.748V3548H0V3547H33.748V3481.5H0V3480.5H33.748V3414.5H0V3413.5H33.748V3348H0V3347H33.748V3281H0V3280H33.748V3214.5H0V3213.5H33.748V3182H34.748V3213.5H100.248V3182H101.248V3213.5H167.248V3182H168.248V3213.5H233.748V3182H234.748V3213.5H300.748V3182H301.748V3213.5H367.248V3182H368.248V3213.5H434.248V3182H435.248V3213.5H500.748V3182H501.748V3213.5H567.748V3182H568.748V3213.5H634.248V3182H635.248V3213.5H701.248V3182H702.248V3213.5H767.748V3182H768.748V3213.5H834.748V3182H835.748V3213.5H901.248V3182H902.248V3213.5H968.248V3182H969.248V3213.5H1034.75V3182H1035.75V3213.5H1101.75V3182H1102.75V3213.5H1168.25V3182H1169.25V3213.5H1235.25V3182H1236.25V3213.5H1301.75V3182H1302.75V3213.5H1336.5V3214.5H1302.75V3280H1336.5V3281H1302.75V3347H1336.5V3348H1302.75V3413.5H1336.5V3414.5H1302.75V3480.5H1336.5V3481.5H1302.75V3547H1336.5V3548H1302.75V3614H1336.5V3615H1302.75V3680.5H1336.5V3681.5H1302.75V3747.5H1336.5V3748.5H1302.75V3814H1336.5V3815H1302.75V3881H1336.5V3882H1302.75V3947.5H1336.5V3948.5H1302.75V4014.5H1336.5V4015.5H1302.75V4081H1336.5V4082H1302.75V4148H1336.5V4149H1302.75V4214.5H1336.5V4215.5H1302.75V4281.5H1336.5V4282.5H1302.75V4348H1336.5V4349H1302.75V4415H1336.5V4416H1302.75V4481.5H1336.5V4482.5H1302.75V4548.5H1336.5V4549.5H1302.75V4615H1336.5V4616H1302.75V4682H1336.5V4683H1302.75V4748.5H1336.5V4749.5H1302.75V4773H1301.75V4749.5H1236.25V4773H1235.25V4749.5H1169.25V4773H1168.25V4749.5H1102.75V4773H1101.75V4749.5H1035.75V4773H1034.75V4749.5H969.248V4773H968.248V4749.5H902.248V4773H901.248V4749.5H835.748V4773H834.748V4749.5H768.748V4773H767.748V4749.5H702.248V4773H701.248V4749.5H635.248V4773H634.248V4749.5H568.748V4773H567.748V4749.5H501.748V4773H500.748V4749.5H435.248V4773H434.248V4749.5H368.248V4773H367.248V4749.5H301.748V4773H300.748V4749.5H234.748V4773H233.748V4749.5H168.248V4773H167.248V4749.5H101.248V4773H100.248V4749.5H34.748V4773H33.748ZM1301.75 4748.5V4683H1236.25V4748.5H1301.75ZM1301.75 4682V4616H1236.25V4682H1301.75ZM1301.75 4615V4549.5H1236.25V4615H1301.75ZM1301.75 4548.5V4482.5H1236.25V4548.5H1301.75ZM1301.75 4481.5V4416H1236.25V4481.5H1301.75ZM1301.75 4415V4349H1236.25V4415H1301.75ZM1301.75 4348V4282.5H1236.25V4348H1301.75ZM1301.75 4281.5V4215.5H1236.25V4281.5H1301.75ZM1301.75 4214.5V4149H1236.25V4214.5H1301.75ZM1301.75 4148V4082H1236.25V4148H1301.75ZM1301.75 4081V4015.5H1236.25V4081H1301.75ZM1301.75 4014.5V3948.5H1236.25V4014.5H1301.75ZM1301.75 3947.5V3882H1236.25V3947.5H1301.75ZM1301.75 3881V3815H1236.25V3881H1301.75ZM1301.75 3814V3748.5H1236.25V3814H1301.75ZM1301.75 3747.5V3681.5H1236.25V3747.5H1301.75ZM1301.75 3680.5V3615H1236.25V3680.5H1301.75ZM1301.75 3614V3548H1236.25V3614H1301.75ZM1301.75 3547V3481.5H1236.25V3547H1301.75ZM1301.75 3480.5V3414.5H1236.25V3480.5H1301.75ZM1301.75 3413.5V3348H1236.25V3413.5H1301.75ZM1301.75 3347V3281H1236.25V3347H1301.75ZM1301.75 3280V3214.5H1236.25V3280H1301.75ZM1102.75 3214.5H1168.25V3280H1102.75V3214.5ZM1102.75 3281H1168.25V3347H1102.75V3281ZM1169.25 3281V3347H1235.25V3281H1169.25ZM1102.75 3348H1168.25V3413.5H1102.75V3348ZM1169.25 3348V3413.5H1235.25V3348H1169.25ZM1102.75 3414.5H1168.25V3480.5H1102.75V3414.5ZM1169.25 3414.5V3480.5H1235.25V3414.5H1169.25ZM1102.75 3481.5H1168.25V3547H1102.75V3481.5ZM1169.25 3481.5V3547H1235.25V3481.5H1169.25ZM1102.75 3548H1168.25V3614H1102.75V3548ZM1169.25 3548V3614H1235.25V3548H1169.25ZM1102.75 3615H1168.25V3680.5H1102.75V3615ZM1169.25 3615V3680.5H1235.25V3615H1169.25ZM1102.75 3681.5H1168.25V3747.5H1102.75V3681.5ZM1169.25 3681.5V3747.5H1235.25V3681.5H1169.25ZM1102.75 3748.5H1168.25V3814H1102.75V3748.5ZM1169.25 3748.5V3814H1235.25V3748.5H1169.25ZM1102.75 3815H1168.25V3881H1102.75V3815ZM1169.25 3815V3881H1235.25V3815H1169.25ZM1102.75 3882H1168.25V3947.5H1102.75V3882ZM1169.25 3882V3947.5H1235.25V3882H1169.25ZM1102.75 3948.5H1168.25V4014.5H1102.75V3948.5ZM1169.25 3948.5V4014.5H1235.25V3948.5H1169.25ZM1102.75 4015.5H1168.25V4081H1102.75V4015.5ZM1169.25 4015.5V4081H1235.25V4015.5H1169.25ZM1102.75 4082H1168.25V4148H1102.75V4082ZM1169.25 4082V4148H1235.25V4082H1169.25ZM1102.75 4149H1168.25V4214.5H1102.75V4149ZM1169.25 4149V4214.5H1235.25V4149H1169.25ZM1102.75 4215.5H1168.25V4281.5H1102.75V4215.5ZM1169.25 4215.5V4281.5H1235.25V4215.5H1169.25ZM1102.75 4282.5H1168.25V4348H1102.75V4282.5ZM1169.25 4282.5V4348H1235.25V4282.5H1169.25ZM1102.75 4349H1168.25V4415H1102.75V4349ZM1169.25 4349V4415H1235.25V4349H1169.25ZM1102.75 4416H1168.25V4481.5H1102.75V4416ZM1169.25 4416V4481.5H1235.25V4416H1169.25ZM1102.75 4482.5H1168.25V4548.5H1102.75V4482.5ZM1169.25 4482.5V4548.5H1235.25V4482.5H1169.25ZM1102.75 4549.5H1168.25V4615H1102.75V4549.5ZM1169.25 4549.5V4615H1235.25V4549.5H1169.25ZM1102.75 4616H1168.25V4682H1102.75V4616ZM1169.25 4616V4682H1235.25V4616H1169.25ZM1102.75 4683H1168.25V4748.5H1102.75V4683ZM1169.25 4683V4748.5H1235.25V4683H1169.25ZM1169.25 3214.5V3280H1235.25V3214.5H1169.25ZM1035.75 4748.5H1101.75V4683H1035.75V4748.5ZM1034.75 4683V4748.5H969.248V4683H1034.75ZM1035.75 4682H1101.75V4616H1035.75V4682ZM1034.75 4616V4682H969.248V4616H1034.75ZM1035.75 4615H1101.75V4549.5H1035.75V4615ZM1034.75 4549.5V4615H969.248V4549.5H1034.75ZM1035.75 4548.5H1101.75V4482.5H1035.75V4548.5ZM1034.75 4482.5V4548.5H969.248V4482.5H1034.75ZM1035.75 4481.5H1101.75V4416H1035.75V4481.5ZM1034.75 4416V4481.5H969.248V4416H1034.75ZM1035.75 4415H1101.75V4349H1035.75V4415ZM1034.75 4349V4415H969.248V4349H1034.75ZM1035.75 4348H1101.75V4282.5H1035.75V4348ZM1034.75 4282.5V4348H969.248V4282.5H1034.75ZM1035.75 4281.5H1101.75V4215.5H1035.75V4281.5ZM1034.75 4215.5V4281.5H969.248V4215.5H1034.75ZM1035.75 4214.5H1101.75V4149H1035.75V4214.5ZM1034.75 4149V4214.5H969.248V4149H1034.75ZM1035.75 4148H1101.75V4082H1035.75V4148ZM1034.75 4082V4148H969.248V4082H1034.75ZM1035.75 4081H1101.75V4015.5H1035.75V4081ZM1034.75 4015.5V4081H969.248V4015.5H1034.75ZM1035.75 4014.5H1101.75V3948.5H1035.75V4014.5ZM1034.75 3948.5V4014.5H969.248V3948.5H1034.75ZM1035.75 3947.5H1101.75V3882H1035.75V3947.5ZM1034.75 3882V3947.5H969.248V3882H1034.75ZM1035.75 3881H1101.75V3815H1035.75V3881ZM1034.75 3815V3881H969.248V3815H1034.75ZM1035.75 3814H1101.75V3748.5H1035.75V3814ZM1034.75 3748.5V3814H969.248V3748.5H1034.75ZM1035.75 3747.5H1101.75V3681.5H1035.75V3747.5ZM1034.75 3681.5V3747.5H969.248V3681.5H1034.75ZM1035.75 3680.5H1101.75V3615H1035.75V3680.5ZM1034.75 3615V3680.5H969.248V3615H1034.75ZM1035.75 3614H1101.75V3548H1035.75V3614ZM1034.75 3548V3614H969.248V3548H1034.75ZM1035.75 3547H1101.75V3481.5H1035.75V3547ZM1034.75 3481.5V3547H969.248V3481.5H1034.75ZM1035.75 3480.5H1101.75V3414.5H1035.75V3480.5ZM1034.75 3414.5V3480.5H969.248V3414.5H1034.75ZM1035.75 3413.5H1101.75V3348H1035.75V3413.5ZM1034.75 3348V3413.5H969.248V3348H1034.75ZM1035.75 3347H1101.75V3281H1035.75V3347ZM1034.75 3281V3347H969.248V3281H1034.75ZM1035.75 3280H1101.75V3214.5H1035.75V3280ZM1034.75 3214.5V3280H969.248V3214.5H1034.75ZM835.748 3214.5H901.248V3280H835.748V3214.5ZM835.748 3281H901.248V3347H835.748V3281ZM902.248 3281V3347H968.248V3281H902.248ZM835.748 3348H901.248V3413.5H835.748V3348ZM902.248 3348V3413.5H968.248V3348H902.248ZM835.748 3414.5H901.248V3480.5H835.748V3414.5ZM902.248 3414.5V3480.5H968.248V3414.5H902.248ZM835.748 3481.5H901.248V3547H835.748V3481.5ZM902.248 3481.5V3547H968.248V3481.5H902.248ZM835.748 3548H901.248V3614H835.748V3548ZM902.248 3548V3614H968.248V3548H902.248ZM835.748 3615H901.248V3680.5H835.748V3615ZM902.248 3615V3680.5H968.248V3615H902.248ZM835.748 3681.5H901.248V3747.5H835.748V3681.5ZM902.248 3681.5V3747.5H968.248V3681.5H902.248ZM835.748 3748.5H901.248V3814H835.748V3748.5ZM902.248 3748.5V3814H968.248V3748.5H902.248ZM835.748 3815H901.248V3881H835.748V3815ZM902.248 3815V3881H968.248V3815H902.248ZM835.748 3882H901.248V3947.5H835.748V3882ZM902.248 3882V3947.5H968.248V3882H902.248ZM835.748 3948.5H901.248V4014.5H835.748V3948.5ZM902.248 3948.5V4014.5H968.248V3948.5H902.248ZM835.748 4015.5H901.248V4081H835.748V4015.5ZM902.248 4015.5V4081H968.248V4015.5H902.248ZM835.748 4082H901.248V4148H835.748V4082ZM902.248 4082V4148H968.248V4082H902.248ZM835.748 4149H901.248V4214.5H835.748V4149ZM902.248 4149V4214.5H968.248V4149H902.248ZM835.748 4215.5H901.248V4281.5H835.748V4215.5ZM902.248 4215.5V4281.5H968.248V4215.5H902.248ZM835.748 4282.5H901.248V4348H835.748V4282.5ZM902.248 4282.5V4348H968.248V4282.5H902.248ZM835.748 4349H901.248V4415H835.748V4349ZM902.248 4349V4415H968.248V4349H902.248ZM835.748 4416H901.248V4481.5H835.748V4416ZM902.248 4416V4481.5H968.248V4416H902.248ZM835.748 4482.5H901.248V4548.5H835.748V4482.5ZM902.248 4482.5V4548.5H968.248V4482.5H902.248ZM835.748 4549.5H901.248V4615H835.748V4549.5ZM902.248 4549.5V4615H968.248V4549.5H902.248ZM835.748 4616H901.248V4682H835.748V4616ZM902.248 4616V4682H968.248V4616H902.248ZM835.748 4683H901.248V4748.5H835.748V4683ZM902.248 4683V4748.5H968.248V4683H902.248ZM902.248 3214.5V3280H968.248V3214.5H902.248ZM768.748 4748.5H834.748V4683H768.748V4748.5ZM767.748 4683V4748.5H702.248V4683H767.748ZM768.748 4682H834.748V4616H768.748V4682ZM767.748 4616V4682H702.248V4616H767.748ZM768.748 4615H834.748V4549.5H768.748V4615ZM767.748 4549.5V4615H702.248V4549.5H767.748ZM768.748 4548.5H834.748V4482.5H768.748V4548.5ZM767.748 4482.5V4548.5H702.248V4482.5H767.748ZM768.748 4481.5H834.748V4416H768.748V4481.5ZM767.748 4416V4481.5H702.248V4416H767.748ZM768.748 4415H834.748V4349H768.748V4415ZM767.748 4349V4415H702.248V4349H767.748ZM768.748 4348H834.748V4282.5H768.748V4348ZM767.748 4282.5V4348H702.248V4282.5H767.748ZM768.748 4281.5H834.748V4215.5H768.748V4281.5ZM767.748 4215.5V4281.5H702.248V4215.5H767.748ZM768.748 4214.5H834.748V4149H768.748V4214.5ZM767.748 4149V4214.5H702.248V4149H767.748ZM768.748 4148H834.748V4082H768.748V4148ZM767.748 4082V4148H702.248V4082H767.748ZM768.748 4081H834.748V4015.5H768.748V4081ZM767.748 4015.5V4081H702.248V4015.5H767.748ZM768.748 4014.5H834.748V3948.5H768.748V4014.5ZM767.748 3948.5V4014.5H702.248V3948.5H767.748ZM768.748 3947.5H834.748V3882H768.748V3947.5ZM767.748 3882V3947.5H702.248V3882H767.748ZM768.748 3881H834.748V3815H768.748V3881ZM767.748 3815V3881H702.248V3815H767.748ZM768.748 3814H834.748V3748.5H768.748V3814ZM767.748 3748.5V3814H702.248V3748.5H767.748ZM768.748 3747.5H834.748V3681.5H768.748V3747.5ZM767.748 3681.5V3747.5H702.248V3681.5H767.748ZM768.748 3680.5H834.748V3615H768.748V3680.5ZM767.748 3615V3680.5H702.248V3615H767.748ZM768.748 3614H834.748V3548H768.748V3614ZM767.748 3548V3614H702.248V3548H767.748ZM768.748 3547H834.748V3481.5H768.748V3547ZM767.748 3481.5V3547H702.248V3481.5H767.748ZM768.748 3480.5H834.748V3414.5H768.748V3480.5ZM767.748 3414.5V3480.5H702.248V3414.5H767.748ZM768.748 3413.5H834.748V3348H768.748V3413.5ZM767.748 3348V3413.5H702.248V3348H767.748ZM768.748 3347H834.748V3281H768.748V3347ZM767.748 3281V3347H702.248V3281H767.748ZM768.748 3280H834.748V3214.5H768.748V3280ZM767.748 3214.5V3280H702.248V3214.5H767.748ZM568.748 3214.5H634.248V3280H568.748V3214.5ZM568.748 3281H634.248V3347H568.748V3281ZM635.248 3281V3347H701.248V3281H635.248ZM568.748 3348H634.248V3413.5H568.748V3348ZM635.248 3348V3413.5H701.248V3348H635.248ZM568.748 3414.5H634.248V3480.5H568.748V3414.5ZM635.248 3414.5V3480.5H701.248V3414.5H635.248ZM568.748 3481.5H634.248V3547H568.748V3481.5ZM635.248 3481.5V3547H701.248V3481.5H635.248ZM568.748 3548H634.248V3614H568.748V3548ZM635.248 3548V3614H701.248V3548H635.248ZM568.748 3615H634.248V3680.5H568.748V3615ZM635.248 3615V3680.5H701.248V3615H635.248ZM568.748 3681.5H634.248V3747.5H568.748V3681.5ZM635.248 3681.5V3747.5H701.248V3681.5H635.248ZM568.748 3748.5H634.248V3814H568.748V3748.5ZM635.248 3748.5V3814H701.248V3748.5H635.248ZM568.748 3815H634.248V3881H568.748V3815ZM635.248 3815V3881H701.248V3815H635.248ZM568.748 3882H634.248V3947.5H568.748V3882ZM635.248 3882V3947.5H701.248V3882H635.248ZM568.748 3948.5H634.248V4014.5H568.748V3948.5ZM635.248 3948.5V4014.5H701.248V3948.5H635.248ZM568.748 4015.5H634.248V4081H568.748V4015.5ZM635.248 4015.5V4081H701.248V4015.5H635.248ZM568.748 4082H634.248V4148H568.748V4082ZM635.248 4082V4148H701.248V4082H635.248ZM568.748 4149H634.248V4214.5H568.748V4149ZM635.248 4149V4214.5H701.248V4149H635.248ZM568.748 4215.5H634.248V4281.5H568.748V4215.5ZM635.248 4215.5V4281.5H701.248V4215.5H635.248ZM568.748 4282.5H634.248V4348H568.748V4282.5ZM635.248 4282.5V4348H701.248V4282.5H635.248ZM568.748 4349H634.248V4415H568.748V4349ZM635.248 4349V4415H701.248V4349H635.248ZM568.748 4416H634.248V4481.5H568.748V4416ZM635.248 4416V4481.5H701.248V4416H635.248ZM568.748 4482.5H634.248V4548.5H568.748V4482.5ZM635.248 4482.5V4548.5H701.248V4482.5H635.248ZM568.748 4549.5H634.248V4615H568.748V4549.5ZM635.248 4549.5V4615H701.248V4549.5H635.248ZM568.748 4616H634.248V4682H568.748V4616ZM635.248 4616V4682H701.248V4616H635.248ZM568.748 4683H634.248V4748.5H568.748V4683ZM635.248 4683V4748.5H701.248V4683H635.248ZM635.248 3214.5V3280H701.248V3214.5H635.248ZM501.748 4748.5H567.748V4683H501.748V4748.5ZM500.748 4683V4748.5H435.248V4683H500.748ZM501.748 4682H567.748V4616H501.748V4682ZM500.748 4616V4682H435.248V4616H500.748ZM501.748 4615H567.748V4549.5H501.748V4615ZM500.748 4549.5V4615H435.248V4549.5H500.748ZM501.748 4548.5H567.748V4482.5H501.748V4548.5ZM500.748 4482.5V4548.5H435.248V4482.5H500.748ZM501.748 4481.5H567.748V4416H501.748V4481.5ZM500.748 4416V4481.5H435.248V4416H500.748ZM501.748 4415H567.748V4349H501.748V4415ZM500.748 4349V4415H435.248V4349H500.748ZM501.748 4348H567.748V4282.5H501.748V4348ZM500.748 4282.5V4348H435.248V4282.5H500.748ZM501.748 4281.5H567.748V4215.5H501.748V4281.5ZM500.748 4215.5V4281.5H435.248V4215.5H500.748ZM501.748 4214.5H567.748V4149H501.748V4214.5ZM500.748 4149V4214.5H435.248V4149H500.748ZM501.748 4148H567.748V4082H501.748V4148ZM500.748 4082V4148H435.248V4082H500.748ZM501.748 4081H567.748V4015.5H501.748V4081ZM500.748 4015.5V4081H435.248V4015.5H500.748ZM501.748 4014.5H567.748V3948.5H501.748V4014.5ZM500.748 3948.5V4014.5H435.248V3948.5H500.748ZM501.748 3947.5H567.748V3882H501.748V3947.5ZM500.748 3882V3947.5H435.248V3882H500.748ZM501.748 3881H567.748V3815H501.748V3881ZM500.748 3815V3881H435.248V3815H500.748ZM501.748 3814H567.748V3748.5H501.748V3814ZM500.748 3748.5V3814H435.248V3748.5H500.748ZM501.748 3747.5H567.748V3681.5H501.748V3747.5ZM500.748 3681.5V3747.5H435.248V3681.5H500.748ZM501.748 3680.5H567.748V3615H501.748V3680.5ZM500.748 3615V3680.5H435.248V3615H500.748ZM501.748 3614H567.748V3548H501.748V3614ZM500.748 3548V3614H435.248V3548H500.748ZM501.748 3547H567.748V3481.5H501.748V3547ZM500.748 3481.5V3547H435.248V3481.5H500.748ZM501.748 3480.5H567.748V3414.5H501.748V3480.5ZM500.748 3414.5V3480.5H435.248V3414.5H500.748ZM501.748 3413.5H567.748V3348H501.748V3413.5ZM500.748 3348V3413.5H435.248V3348H500.748ZM501.748 3347H567.748V3281H501.748V3347ZM500.748 3281V3347H435.248V3281H500.748ZM501.748 3280H567.748V3214.5H501.748V3280ZM500.748 3214.5V3280H435.248V3214.5H500.748ZM301.748 3214.5H367.248V3280H301.748V3214.5ZM301.748 3281H367.248V3347H301.748V3281ZM368.248 3281V3347H434.248V3281H368.248ZM301.748 3348H367.248V3413.5H301.748V3348ZM368.248 3348V3413.5H434.248V3348H368.248ZM301.748 3414.5H367.248V3480.5H301.748V3414.5ZM368.248 3414.5V3480.5H434.248V3414.5H368.248ZM301.748 3481.5H367.248V3547H301.748V3481.5ZM368.248 3481.5V3547H434.248V3481.5H368.248ZM301.748 3548H367.248V3614H301.748V3548ZM368.248 3548V3614H434.248V3548H368.248ZM301.748 3615H367.248V3680.5H301.748V3615ZM368.248 3615V3680.5H434.248V3615H368.248ZM301.748 3681.5H367.248V3747.5H301.748V3681.5ZM368.248 3681.5V3747.5H434.248V3681.5H368.248ZM301.748 3748.5H367.248V3814H301.748V3748.5ZM368.248 3748.5V3814H434.248V3748.5H368.248ZM301.748 3815H367.248V3881H301.748V3815ZM368.248 3815V3881H434.248V3815H368.248ZM301.748 3882H367.248V3947.5H301.748V3882ZM368.248 3882V3947.5H434.248V3882H368.248ZM301.748 3948.5H367.248V4014.5H301.748V3948.5ZM368.248 3948.5V4014.5H434.248V3948.5H368.248ZM301.748 4015.5H367.248V4081H301.748V4015.5ZM368.248 4015.5V4081H434.248V4015.5H368.248ZM301.748 4082H367.248V4148H301.748V4082ZM368.248 4082V4148H434.248V4082H368.248ZM301.748 4149H367.248V4214.5H301.748V4149ZM368.248 4149V4214.5H434.248V4149H368.248ZM301.748 4215.5H367.248V4281.5H301.748V4215.5ZM368.248 4215.5V4281.5H434.248V4215.5H368.248ZM301.748 4282.5H367.248V4348H301.748V4282.5ZM368.248 4282.5V4348H434.248V4282.5H368.248ZM301.748 4349H367.248V4415H301.748V4349ZM368.248 4349V4415H434.248V4349H368.248ZM301.748 4416H367.248V4481.5H301.748V4416ZM368.248 4416V4481.5H434.248V4416H368.248ZM301.748 4482.5H367.248V4548.5H301.748V4482.5ZM368.248 4482.5V4548.5H434.248V4482.5H368.248ZM301.748 4549.5H367.248V4615H301.748V4549.5ZM368.248 4549.5V4615H434.248V4549.5H368.248ZM301.748 4616H367.248V4682H301.748V4616ZM368.248 4616V4682H434.248V4616H368.248ZM301.748 4683H367.248V4748.5H301.748V4683ZM368.248 4683V4748.5H434.248V4683H368.248ZM368.248 3214.5V3280H434.248V3214.5H368.248ZM234.748 4748.5H300.748V4683H234.748V4748.5ZM233.748 4683V4748.5H168.248V4683H233.748ZM234.748 4682H300.748V4616H234.748V4682ZM233.748 4616V4682H168.248V4616H233.748ZM234.748 4615H300.748V4549.5H234.748V4615ZM233.748 4549.5V4615H168.248V4549.5H233.748ZM234.748 4548.5H300.748V4482.5H234.748V4548.5ZM233.748 4482.5V4548.5H168.248V4482.5H233.748ZM234.748 4481.5H300.748V4416H234.748V4481.5ZM233.748 4416V4481.5H168.248V4416H233.748ZM234.748 4415H300.748V4349H234.748V4415ZM233.748 4349V4415H168.248V4349H233.748ZM234.748 4348H300.748V4282.5H234.748V4348ZM233.748 4282.5V4348H168.248V4282.5H233.748ZM234.748 4281.5H300.748V4215.5H234.748V4281.5ZM233.748 4215.5V4281.5H168.248V4215.5H233.748ZM234.748 4214.5H300.748V4149H234.748V4214.5ZM233.748 4149V4214.5H168.248V4149H233.748ZM234.748 4148H300.748V4082H234.748V4148ZM233.748 4082V4148H168.248V4082H233.748ZM234.748 4081H300.748V4015.5H234.748V4081ZM233.748 4015.5V4081H168.248V4015.5H233.748ZM234.748 4014.5H300.748V3948.5H234.748V4014.5ZM233.748 3948.5V4014.5H168.248V3948.5H233.748ZM234.748 3947.5H300.748V3882H234.748V3947.5ZM233.748 3882V3947.5H168.248V3882H233.748ZM234.748 3881H300.748V3815H234.748V3881ZM233.748 3815V3881H168.248V3815H233.748ZM234.748 3814H300.748V3748.5H234.748V3814ZM233.748 3748.5V3814H168.248V3748.5H233.748ZM234.748 3747.5H300.748V3681.5H234.748V3747.5ZM233.748 3681.5V3747.5H168.248V3681.5H233.748ZM234.748 3680.5H300.748V3615H234.748V3680.5ZM233.748 3615V3680.5H168.248V3615H233.748ZM234.748 3614H300.748V3548H234.748V3614ZM233.748 3548V3614H168.248V3548H233.748ZM234.748 3547H300.748V3481.5H234.748V3547ZM233.748 3481.5V3547H168.248V3481.5H233.748ZM234.748 3480.5H300.748V3414.5H234.748V3480.5ZM233.748 3414.5V3480.5H168.248V3414.5H233.748ZM234.748 3413.5H300.748V3348H234.748V3413.5ZM233.748 3348V3413.5H168.248V3348H233.748ZM234.748 3347H300.748V3281H234.748V3347ZM233.748 3281V3347H168.248V3281H233.748ZM234.748 3280H300.748V3214.5H234.748V3280ZM233.748 3214.5V3280H168.248V3214.5H233.748ZM34.748 3214.5H100.248V3280H34.748V3214.5ZM34.748 3281H100.248V3347H34.748V3281ZM101.248 3281V3347H167.248V3281H101.248ZM34.748 3348H100.248V3413.5H34.748V3348ZM101.248 3348V3413.5H167.248V3348H101.248ZM34.748 3414.5H100.248V3480.5H34.748V3414.5ZM101.248 3414.5V3480.5H167.248V3414.5H101.248ZM34.748 3481.5H100.248V3547H34.748V3481.5ZM101.248 3481.5V3547H167.248V3481.5H101.248ZM34.748 3548H100.248V3614H34.748V3548ZM101.248 3548V3614H167.248V3548H101.248ZM34.748 3615H100.248V3680.5H34.748V3615ZM101.248 3615V3680.5H167.248V3615H101.248ZM34.748 3681.5H100.248V3747.5H34.748V3681.5ZM101.248 3681.5V3747.5H167.248V3681.5H101.248ZM34.748 3748.5H100.248V3814H34.748V3748.5ZM101.248 3748.5V3814H167.248V3748.5H101.248ZM34.748 3815H100.248V3881H34.748V3815ZM101.248 3815V3881H167.248V3815H101.248ZM34.748 3882H100.248V3947.5H34.748V3882ZM101.248 3882V3947.5H167.248V3882H101.248ZM34.748 3948.5H100.248V4014.5H34.748V3948.5ZM101.248 3948.5V4014.5H167.248V3948.5H101.248ZM34.748 4015.5H100.248V4081H34.748V4015.5ZM101.248 4015.5V4081H167.248V4015.5H101.248ZM34.748 4082H100.248V4148H34.748V4082ZM101.248 4082V4148H167.248V4082H101.248ZM34.748 4149H100.248V4214.5H34.748V4149ZM101.248 4149V4214.5H167.248V4149H101.248ZM34.748 4215.5H100.248V4281.5H34.748V4215.5ZM101.248 4215.5V4281.5H167.248V4215.5H101.248ZM34.748 4282.5H100.248V4348H34.748V4282.5ZM101.248 4282.5V4348H167.248V4282.5H101.248ZM34.748 4349H100.248V4415H34.748V4349ZM101.248 4349V4415H167.248V4349H101.248ZM34.748 4416H100.248V4481.5H34.748V4416ZM101.248 4416V4481.5H167.248V4416H101.248ZM34.748 4482.5H100.248V4548.5H34.748V4482.5ZM101.248 4482.5V4548.5H167.248V4482.5H101.248ZM34.748 4549.5H100.248V4615H34.748V4549.5ZM101.248 4549.5V4615H167.248V4549.5H101.248ZM34.748 4616H100.248V4682H34.748V4616ZM101.248 4616V4682H167.248V4616H101.248ZM34.748 4683H100.248V4748.5H34.748V4683ZM101.248 4683V4748.5H167.248V4683H101.248ZM101.248 3214.5V3280H167.248V3214.5H101.248Z" fill="url(#paint1_linear_3915_833)"/>
<path fill-rule="evenodd" clip-rule="evenodd" d="M33.748 6364V6340.5H0V6339.5H33.748V6274H0V6273H33.748V6207H0V6206H33.748V6140.5H0V6139.5H33.748V6073.5H0V6072.5H33.748V6007H0V6006H33.748V5940H0V5939H33.748V5873.5H0V5872.5H33.748V5806.5H0V5805.5H33.748V5740H0V5739H33.748V5673H0V5672H33.748V5606.5H0V5605.5H33.748V5539.5H0V5538.5H33.748V5473H0V5472H33.748V5406H0V5405H33.748V5339.5H0V5338.5H33.748V5272.5H0V5271.5H33.748V5206H0V5205H33.748V5139H0V5138H33.748V5072.5H0V5071.5H33.748V5005.5H0V5004.5H33.748V4939H0V4938H33.748V4872H0V4871H33.748V4805.5H0V4804.5H33.748V4773H34.748V4804.5H100.248V4773H101.248V4804.5H167.248V4773H168.248V4804.5H233.748V4773H234.748V4804.5H300.748V4773H301.748V4804.5H367.248V4773H368.248V4804.5H434.248V4773H435.248V4804.5H500.748V4773H501.748V4804.5H567.748V4773H568.748V4804.5H634.248V4773H635.248V4804.5H701.248V4773H702.248V4804.5H767.748V4773H768.748V4804.5H834.748V4773H835.748V4804.5H901.248V4773H902.248V4804.5H968.248V4773H969.248V4804.5H1034.75V4773H1035.75V4804.5H1101.75V4773H1102.75V4804.5H1168.25V4773H1169.25V4804.5H1235.25V4773H1236.25V4804.5H1301.75V4773H1302.75V4804.5H1336.5V4805.5H1302.75V4871H1336.5V4872H1302.75V4938H1336.5V4939H1302.75V5004.5H1336.5V5005.5H1302.75V5071.5H1336.5V5072.5H1302.75V5138H1336.5V5139H1302.75V5205H1336.5V5206H1302.75V5271.5H1336.5V5272.5H1302.75V5338.5H1336.5V5339.5H1302.75V5405H1336.5V5406H1302.75V5472H1336.5V5473H1302.75V5538.5H1336.5V5539.5H1302.75V5605.5H1336.5V5606.5H1302.75V5672H1336.5V5673H1302.75V5739H1336.5V5740H1302.75V5805.5H1336.5V5806.5H1302.75V5872.5H1336.5V5873.5H1302.75V5939H1336.5V5940H1302.75V6006H1336.5V6007H1302.75V6072.5H1336.5V6073.5H1302.75V6139.5H1336.5V6140.5H1302.75V6206H1336.5V6207H1302.75V6273H1336.5V6274H1302.75V6339.5H1336.5V6340.5H1302.75V6364H1301.75V6340.5H1236.25V6364H1235.25V6340.5H1169.25V6364H1168.25V6340.5H1102.75V6364H1101.75V6340.5H1035.75V6364H1034.75V6340.5H969.248V6364H968.248V6340.5H902.248V6364H901.248V6340.5H835.748V6364H834.748V6340.5H768.748V6364H767.748V6340.5H702.248V6364H701.248V6340.5H635.248V6364H634.248V6340.5H568.748V6364H567.748V6340.5H501.748V6364H500.748V6340.5H435.248V6364H434.248V6340.5H368.248V6364H367.248V6340.5H301.748V6364H300.748V6340.5H234.748V6364H233.748V6340.5H168.248V6364H167.248V6340.5H101.248V6364H100.248V6340.5H34.748V6364H33.748ZM1301.75 6339.5V6274H1236.25V6339.5H1301.75ZM1301.75 6273V6207H1236.25V6273H1301.75ZM1301.75 6206V6140.5H1236.25V6206H1301.75ZM1301.75 6139.5V6073.5H1236.25V6139.5H1301.75ZM1301.75 6072.5V6007H1236.25V6072.5H1301.75ZM1301.75 6006V5940H1236.25V6006H1301.75ZM1301.75 5939V5873.5H1236.25V5939H1301.75ZM1301.75 5872.5V5806.5H1236.25V5872.5H1301.75ZM1301.75 5805.5V5740H1236.25V5805.5H1301.75ZM1301.75 5739V5673H1236.25V5739H1301.75ZM1301.75 5672V5606.5H1236.25V5672H1301.75ZM1301.75 5605.5V5539.5H1236.25V5605.5H1301.75ZM1301.75 5538.5V5473H1236.25V5538.5H1301.75ZM1301.75 5472V5406H1236.25V5472H1301.75ZM1301.75 5405V5339.5H1236.25V5405H1301.75ZM1301.75 5338.5V5272.5H1236.25V5338.5H1301.75ZM1301.75 5271.5V5206H1236.25V5271.5H1301.75ZM1301.75 5205V5139H1236.25V5205H1301.75ZM1301.75 5138V5072.5H1236.25V5138H1301.75ZM1301.75 5071.5V5005.5H1236.25V5071.5H1301.75ZM1301.75 5004.5V4939H1236.25V5004.5H1301.75ZM1301.75 4938V4872H1236.25V4938H1301.75ZM1301.75 4871V4805.5H1236.25V4871H1301.75ZM1102.75 4805.5H1168.25V4871H1102.75V4805.5ZM1102.75 4872H1168.25V4938H1102.75V4872ZM1169.25 4872V4938H1235.25V4872H1169.25ZM1102.75 4939H1168.25V5004.5H1102.75V4939ZM1169.25 4939V5004.5H1235.25V4939H1169.25ZM1102.75 5005.5H1168.25V5071.5H1102.75V5005.5ZM1169.25 5005.5V5071.5H1235.25V5005.5H1169.25ZM1102.75 5072.5H1168.25V5138H1102.75V5072.5ZM1169.25 5072.5V5138H1235.25V5072.5H1169.25ZM1102.75 5139H1168.25V5205H1102.75V5139ZM1169.25 5139V5205H1235.25V5139H1169.25ZM1102.75 5206H1168.25V5271.5H1102.75V5206ZM1169.25 5206V5271.5H1235.25V5206H1169.25ZM1102.75 5272.5H1168.25V5338.5H1102.75V5272.5ZM1169.25 5272.5V5338.5H1235.25V5272.5H1169.25ZM1102.75 5339.5H1168.25V5405H1102.75V5339.5ZM1169.25 5339.5V5405H1235.25V5339.5H1169.25ZM1102.75 5406H1168.25V5472H1102.75V5406ZM1169.25 5406V5472H1235.25V5406H1169.25ZM1102.75 5473H1168.25V5538.5H1102.75V5473ZM1169.25 5473V5538.5H1235.25V5473H1169.25ZM1102.75 5539.5H1168.25V5605.5H1102.75V5539.5ZM1169.25 5539.5V5605.5H1235.25V5539.5H1169.25ZM1102.75 5606.5H1168.25V5672H1102.75V5606.5ZM1169.25 5606.5V5672H1235.25V5606.5H1169.25ZM1102.75 5673H1168.25V5739H1102.75V5673ZM1169.25 5673V5739H1235.25V5673H1169.25ZM1102.75 5740H1168.25V5805.5H1102.75V5740ZM1169.25 5740V5805.5H1235.25V5740H1169.25ZM1102.75 5806.5H1168.25V5872.5H1102.75V5806.5ZM1169.25 5806.5V5872.5H1235.25V5806.5H1169.25ZM1102.75 5873.5H1168.25V5939H1102.75V5873.5ZM1169.25 5873.5V5939H1235.25V5873.5H1169.25ZM1102.75 5940H1168.25V6006H1102.75V5940ZM1169.25 5940V6006H1235.25V5940H1169.25ZM1102.75 6007H1168.25V6072.5H1102.75V6007ZM1169.25 6007V6072.5H1235.25V6007H1169.25ZM1102.75 6073.5H1168.25V6139.5H1102.75V6073.5ZM1169.25 6073.5V6139.5H1235.25V6073.5H1169.25ZM1102.75 6140.5H1168.25V6206H1102.75V6140.5ZM1169.25 6140.5V6206H1235.25V6140.5H1169.25ZM1102.75 6207H1168.25V6273H1102.75V6207ZM1169.25 6207V6273H1235.25V6207H1169.25ZM1102.75 6274H1168.25V6339.5H1102.75V6274ZM1169.25 6274V6339.5H1235.25V6274H1169.25ZM1169.25 4805.5V4871H1235.25V4805.5H1169.25ZM1035.75 6339.5H1101.75V6274H1035.75V6339.5ZM1034.75 6274V6339.5H969.248V6274H1034.75ZM1035.75 6273H1101.75V6207H1035.75V6273ZM1034.75 6207V6273H969.248V6207H1034.75ZM1035.75 6206H1101.75V6140.5H1035.75V6206ZM1034.75 6140.5V6206H969.248V6140.5H1034.75ZM1035.75 6139.5H1101.75V6073.5H1035.75V6139.5ZM1034.75 6073.5V6139.5H969.248V6073.5H1034.75ZM1035.75 6072.5H1101.75V6007H1035.75V6072.5ZM1034.75 6007V6072.5H969.248V6007H1034.75ZM1035.75 6006H1101.75V5940H1035.75V6006ZM1034.75 5940V6006H969.248V5940H1034.75ZM1035.75 5939H1101.75V5873.5H1035.75V5939ZM1034.75 5873.5V5939H969.248V5873.5H1034.75ZM1035.75 5872.5H1101.75V5806.5H1035.75V5872.5ZM1034.75 5806.5V5872.5H969.248V5806.5H1034.75ZM1035.75 5805.5H1101.75V5740H1035.75V5805.5ZM1034.75 5740V5805.5H969.248V5740H1034.75ZM1035.75 5739H1101.75V5673H1035.75V5739ZM1034.75 5673V5739H969.248V5673H1034.75ZM1035.75 5672H1101.75V5606.5H1035.75V5672ZM1034.75 5606.5V5672H969.248V5606.5H1034.75ZM1035.75 5605.5H1101.75V5539.5H1035.75V5605.5ZM1034.75 5539.5V5605.5H969.248V5539.5H1034.75ZM1035.75 5538.5H1101.75V5473H1035.75V5538.5ZM1034.75 5473V5538.5H969.248V5473H1034.75ZM1035.75 5472H1101.75V5406H1035.75V5472ZM1034.75 5406V5472H969.248V5406H1034.75ZM1035.75 5405H1101.75V5339.5H1035.75V5405ZM1034.75 5339.5V5405H969.248V5339.5H1034.75ZM1035.75 5338.5H1101.75V5272.5H1035.75V5338.5ZM1034.75 5272.5V5338.5H969.248V5272.5H1034.75ZM1035.75 5271.5H1101.75V5206H1035.75V5271.5ZM1034.75 5206V5271.5H969.248V5206H1034.75ZM1035.75 5205H1101.75V5139H1035.75V5205ZM1034.75 5139V5205H969.248V5139H1034.75ZM1035.75 5138H1101.75V5072.5H1035.75V5138ZM1034.75 5072.5V5138H969.248V5072.5H1034.75ZM1035.75 5071.5H1101.75V5005.5H1035.75V5071.5ZM1034.75 5005.5V5071.5H969.248V5005.5H1034.75ZM1035.75 5004.5H1101.75V4939H1035.75V5004.5ZM1034.75 4939V5004.5H969.248V4939H1034.75ZM1035.75 4938H1101.75V4872H1035.75V4938ZM1034.75 4872V4938H969.248V4872H1034.75ZM1035.75 4871H1101.75V4805.5H1035.75V4871ZM1034.75 4805.5V4871H969.248V4805.5H1034.75ZM835.748 4805.5H901.248V4871H835.748V4805.5ZM835.748 4872H901.248V4938H835.748V4872ZM902.248 4872V4938H968.248V4872H902.248ZM835.748 4939H901.248V5004.5H835.748V4939ZM902.248 4939V5004.5H968.248V4939H902.248ZM835.748 5005.5H901.248V5071.5H835.748V5005.5ZM902.248 5005.5V5071.5H968.248V5005.5H902.248ZM835.748 5072.5H901.248V5138H835.748V5072.5ZM902.248 5072.5V5138H968.248V5072.5H902.248ZM835.748 5139H901.248V5205H835.748V5139ZM902.248 5139V5205H968.248V5139H902.248ZM835.748 5206H901.248V5271.5H835.748V5206ZM902.248 5206V5271.5H968.248V5206H902.248ZM835.748 5272.5H901.248V5338.5H835.748V5272.5ZM902.248 5272.5V5338.5H968.248V5272.5H902.248ZM835.748 5339.5H901.248V5405H835.748V5339.5ZM902.248 5339.5V5405H968.248V5339.5H902.248ZM835.748 5406H901.248V5472H835.748V5406ZM902.248 5406V5472H968.248V5406H902.248ZM835.748 5473H901.248V5538.5H835.748V5473ZM902.248 5473V5538.5H968.248V5473H902.248ZM835.748 5539.5H901.248V5605.5H835.748V5539.5ZM902.248 5539.5V5605.5H968.248V5539.5H902.248ZM835.748 5606.5H901.248V5672H835.748V5606.5ZM902.248 5606.5V5672H968.248V5606.5H902.248ZM835.748 5673H901.248V5739H835.748V5673ZM902.248 5673V5739H968.248V5673H902.248ZM835.748 5740H901.248V5805.5H835.748V5740ZM902.248 5740V5805.5H968.248V5740H902.248ZM835.748 5806.5H901.248V5872.5H835.748V5806.5ZM902.248 5806.5V5872.5H968.248V5806.5H902.248ZM835.748 5873.5H901.248V5939H835.748V5873.5ZM902.248 5873.5V5939H968.248V5873.5H902.248ZM835.748 5940H901.248V6006H835.748V5940ZM902.248 5940V6006H968.248V5940H902.248ZM835.748 6007H901.248V6072.5H835.748V6007ZM902.248 6007V6072.5H968.248V6007H902.248ZM835.748 6073.5H901.248V6139.5H835.748V6073.5ZM902.248 6073.5V6139.5H968.248V6073.5H902.248ZM835.748 6140.5H901.248V6206H835.748V6140.5ZM902.248 6140.5V6206H968.248V6140.5H902.248ZM835.748 6207H901.248V6273H835.748V6207ZM902.248 6207V6273H968.248V6207H902.248ZM835.748 6274H901.248V6339.5H835.748V6274ZM902.248 6274V6339.5H968.248V6274H902.248ZM902.248 4805.5V4871H968.248V4805.5H902.248ZM768.748 6339.5H834.748V6274H768.748V6339.5ZM767.748 6274V6339.5H702.248V6274H767.748ZM768.748 6273H834.748V6207H768.748V6273ZM767.748 6207V6273H702.248V6207H767.748ZM768.748 6206H834.748V6140.5H768.748V6206ZM767.748 6140.5V6206H702.248V6140.5H767.748ZM768.748 6139.5H834.748V6073.5H768.748V6139.5ZM767.748 6073.5V6139.5H702.248V6073.5H767.748ZM768.748 6072.5H834.748V6007H768.748V6072.5ZM767.748 6007V6072.5H702.248V6007H767.748ZM768.748 6006H834.748V5940H768.748V6006ZM767.748 5940V6006H702.248V5940H767.748ZM768.748 5939H834.748V5873.5H768.748V5939ZM767.748 5873.5V5939H702.248V5873.5H767.748ZM768.748 5872.5H834.748V5806.5H768.748V5872.5ZM767.748 5806.5V5872.5H702.248V5806.5H767.748ZM768.748 5805.5H834.748V5740H768.748V5805.5ZM767.748 5740V5805.5H702.248V5740H767.748ZM768.748 5739H834.748V5673H768.748V5739ZM767.748 5673V5739H702.248V5673H767.748ZM768.748 5672H834.748V5606.5H768.748V5672ZM767.748 5606.5V5672H702.248V5606.5H767.748ZM768.748 5605.5H834.748V5539.5H768.748V5605.5ZM767.748 5539.5V5605.5H702.248V5539.5H767.748ZM768.748 5538.5H834.748V5473H768.748V5538.5ZM767.748 5473V5538.5H702.248V5473H767.748ZM768.748 5472H834.748V5406H768.748V5472ZM767.748 5406V5472H702.248V5406H767.748ZM768.748 5405H834.748V5339.5H768.748V5405ZM767.748 5339.5V5405H702.248V5339.5H767.748ZM768.748 5338.5H834.748V5272.5H768.748V5338.5ZM767.748 5272.5V5338.5H702.248V5272.5H767.748ZM768.748 5271.5H834.748V5206H768.748V5271.5ZM767.748 5206V5271.5H702.248V5206H767.748ZM768.748 5205H834.748V5139H768.748V5205ZM767.748 5139V5205H702.248V5139H767.748ZM768.748 5138H834.748V5072.5H768.748V5138ZM767.748 5072.5V5138H702.248V5072.5H767.748ZM768.748 5071.5H834.748V5005.5H768.748V5071.5ZM767.748 5005.5V5071.5H702.248V5005.5H767.748ZM768.748 5004.5H834.748V4939H768.748V5004.5ZM767.748 4939V5004.5H702.248V4939H767.748ZM768.748 4938H834.748V4872H768.748V4938ZM767.748 4872V4938H702.248V4872H767.748ZM768.748 4871H834.748V4805.5H768.748V4871ZM767.748 4805.5V4871H702.248V4805.5H767.748ZM568.748 4805.5H634.248V4871H568.748V4805.5ZM568.748 4872H634.248V4938H568.748V4872ZM635.248 4872V4938H701.248V4872H635.248ZM568.748 4939H634.248V5004.5H568.748V4939ZM635.248 4939V5004.5H701.248V4939H635.248ZM568.748 5005.5H634.248V5071.5H568.748V5005.5ZM635.248 5005.5V5071.5H701.248V5005.5H635.248ZM568.748 5072.5H634.248V5138H568.748V5072.5ZM635.248 5072.5V5138H701.248V5072.5H635.248ZM568.748 5139H634.248V5205H568.748V5139ZM635.248 5139V5205H701.248V5139H635.248ZM568.748 5206H634.248V5271.5H568.748V5206ZM635.248 5206V5271.5H701.248V5206H635.248ZM568.748 5272.5H634.248V5338.5H568.748V5272.5ZM635.248 5272.5V5338.5H701.248V5272.5H635.248ZM568.748 5339.5H634.248V5405H568.748V5339.5ZM635.248 5339.5V5405H701.248V5339.5H635.248ZM568.748 5406H634.248V5472H568.748V5406ZM635.248 5406V5472H701.248V5406H635.248ZM568.748 5473H634.248V5538.5H568.748V5473ZM635.248 5473V5538.5H701.248V5473H635.248ZM568.748 5539.5H634.248V5605.5H568.748V5539.5ZM635.248 5539.5V5605.5H701.248V5539.5H635.248ZM568.748 5606.5H634.248V5672H568.748V5606.5ZM635.248 5606.5V5672H701.248V5606.5H635.248ZM568.748 5673H634.248V5739H568.748V5673ZM635.248 5673V5739H701.248V5673H635.248ZM568.748 5740H634.248V5805.5H568.748V5740ZM635.248 5740V5805.5H701.248V5740H635.248ZM568.748 5806.5H634.248V5872.5H568.748V5806.5ZM635.248 5806.5V5872.5H701.248V5806.5H635.248ZM568.748 5873.5H634.248V5939H568.748V5873.5ZM635.248 5873.5V5939H701.248V5873.5H635.248ZM568.748 5940H634.248V6006H568.748V5940ZM635.248 5940V6006H701.248V5940H635.248ZM568.748 6007H634.248V6072.5H568.748V6007ZM635.248 6007V6072.5H701.248V6007H635.248ZM568.748 6073.5H634.248V6139.5H568.748V6073.5ZM635.248 6073.5V6139.5H701.248V6073.5H635.248ZM568.748 6140.5H634.248V6206H568.748V6140.5ZM635.248 6140.5V6206H701.248V6140.5H635.248ZM568.748 6207H634.248V6273H568.748V6207ZM635.248 6207V6273H701.248V6207H635.248ZM568.748 6274H634.248V6339.5H568.748V6274ZM635.248 6274V6339.5H701.248V6274H635.248ZM635.248 4805.5V4871H701.248V4805.5H635.248ZM501.748 6339.5H567.748V6274H501.748V6339.5ZM500.748 6274V6339.5H435.248V6274H500.748ZM501.748 6273H567.748V6207H501.748V6273ZM500.748 6207V6273H435.248V6207H500.748ZM501.748 6206H567.748V6140.5H501.748V6206ZM500.748 6140.5V6206H435.248V6140.5H500.748ZM501.748 6139.5H567.748V6073.5H501.748V6139.5ZM500.748 6073.5V6139.5H435.248V6073.5H500.748ZM501.748 6072.5H567.748V6007H501.748V6072.5ZM500.748 6007V6072.5H435.248V6007H500.748ZM501.748 6006H567.748V5940H501.748V6006ZM500.748 5940V6006H435.248V5940H500.748ZM501.748 5939H567.748V5873.5H501.748V5939ZM500.748 5873.5V5939H435.248V5873.5H500.748ZM501.748 5872.5H567.748V5806.5H501.748V5872.5ZM500.748 5806.5V5872.5H435.248V5806.5H500.748ZM501.748 5805.5H567.748V5740H501.748V5805.5ZM500.748 5740V5805.5H435.248V5740H500.748ZM501.748 5739H567.748V5673H501.748V5739ZM500.748 5673V5739H435.248V5673H500.748ZM501.748 5672H567.748V5606.5H501.748V5672ZM500.748 5606.5V5672H435.248V5606.5H500.748ZM501.748 5605.5H567.748V5539.5H501.748V5605.5ZM500.748 5539.5V5605.5H435.248V5539.5H500.748ZM501.748 5538.5H567.748V5473H501.748V5538.5ZM500.748 5473V5538.5H435.248V5473H500.748ZM501.748 5472H567.748V5406H501.748V5472ZM500.748 5406V5472H435.248V5406H500.748ZM501.748 5405H567.748V5339.5H501.748V5405ZM500.748 5339.5V5405H435.248V5339.5H500.748ZM501.748 5338.5H567.748V5272.5H501.748V5338.5ZM500.748 5272.5V5338.5H435.248V5272.5H500.748ZM501.748 5271.5H567.748V5206H501.748V5271.5ZM500.748 5206V5271.5H435.248V5206H500.748ZM501.748 5205H567.748V5139H501.748V5205ZM500.748 5139V5205H435.248V5139H500.748ZM501.748 5138H567.748V5072.5H501.748V5138ZM500.748 5072.5V5138H435.248V5072.5H500.748ZM501.748 5071.5H567.748V5005.5H501.748V5071.5ZM500.748 5005.5V5071.5H435.248V5005.5H500.748ZM501.748 5004.5H567.748V4939H501.748V5004.5ZM500.748 4939V5004.5H435.248V4939H500.748ZM501.748 4938H567.748V4872H501.748V4938ZM500.748 4872V4938H435.248V4872H500.748ZM501.748 4871H567.748V4805.5H501.748V4871ZM500.748 4805.5V4871H435.248V4805.5H500.748ZM301.748 4805.5H367.248V4871H301.748V4805.5ZM301.748 4872H367.248V4938H301.748V4872ZM368.248 4872V4938H434.248V4872H368.248ZM301.748 4939H367.248V5004.5H301.748V4939ZM368.248 4939V5004.5H434.248V4939H368.248ZM301.748 5005.5H367.248V5071.5H301.748V5005.5ZM368.248 5005.5V5071.5H434.248V5005.5H368.248ZM301.748 5072.5H367.248V5138H301.748V5072.5ZM368.248 5072.5V5138H434.248V5072.5H368.248ZM301.748 5139H367.248V5205H301.748V5139ZM368.248 5139V5205H434.248V5139H368.248ZM301.748 5206H367.248V5271.5H301.748V5206ZM368.248 5206V5271.5H434.248V5206H368.248ZM301.748 5272.5H367.248V5338.5H301.748V5272.5ZM368.248 5272.5V5338.5H434.248V5272.5H368.248ZM301.748 5339.5H367.248V5405H301.748V5339.5ZM368.248 5339.5V5405H434.248V5339.5H368.248ZM301.748 5406H367.248V5472H301.748V5406ZM368.248 5406V5472H434.248V5406H368.248ZM301.748 5473H367.248V5538.5H301.748V5473ZM368.248 5473V5538.5H434.248V5473H368.248ZM301.748 5539.5H367.248V5605.5H301.748V5539.5ZM368.248 5539.5V5605.5H434.248V5539.5H368.248ZM301.748 5606.5H367.248V5672H301.748V5606.5ZM368.248 5606.5V5672H434.248V5606.5H368.248ZM301.748 5673H367.248V5739H301.748V5673ZM368.248 5673V5739H434.248V5673H368.248ZM301.748 5740H367.248V5805.5H301.748V5740ZM368.248 5740V5805.5H434.248V5740H368.248ZM301.748 5806.5H367.248V5872.5H301.748V5806.5ZM368.248 5806.5V5872.5H434.248V5806.5H368.248ZM301.748 5873.5H367.248V5939H301.748V5873.5ZM368.248 5873.5V5939H434.248V5873.5H368.248ZM301.748 5940H367.248V6006H301.748V5940ZM368.248 5940V6006H434.248V5940H368.248ZM301.748 6007H367.248V6072.5H301.748V6007ZM368.248 6007V6072.5H434.248V6007H368.248ZM301.748 6073.5H367.248V6139.5H301.748V6073.5ZM368.248 6073.5V6139.5H434.248V6073.5H368.248ZM301.748 6140.5H367.248V6206H301.748V6140.5ZM368.248 6140.5V6206H434.248V6140.5H368.248ZM301.748 6207H367.248V6273H301.748V6207ZM368.248 6207V6273H434.248V6207H368.248ZM301.748 6274H367.248V6339.5H301.748V6274ZM368.248 6274V6339.5H434.248V6274H368.248ZM368.248 4805.5V4871H434.248V4805.5H368.248ZM234.748 6339.5H300.748V6274H234.748V6339.5ZM233.748 6274V6339.5H168.248V6274H233.748ZM234.748 6273H300.748V6207H234.748V6273ZM233.748 6207V6273H168.248V6207H233.748ZM234.748 6206H300.748V6140.5H234.748V6206ZM233.748 6140.5V6206H168.248V6140.5H233.748ZM234.748 6139.5H300.748V6073.5H234.748V6139.5ZM233.748 6073.5V6139.5H168.248V6073.5H233.748ZM234.748 6072.5H300.748V6007H234.748V6072.5ZM233.748 6007V6072.5H168.248V6007H233.748ZM234.748 6006H300.748V5940H234.748V6006ZM233.748 5940V6006H168.248V5940H233.748ZM234.748 5939H300.748V5873.5H234.748V5939ZM233.748 5873.5V5939H168.248V5873.5H233.748ZM234.748 5872.5H300.748V5806.5H234.748V5872.5ZM233.748 5806.5V5872.5H168.248V5806.5H233.748ZM234.748 5805.5H300.748V5740H234.748V5805.5ZM233.748 5740V5805.5H168.248V5740H233.748ZM234.748 5739H300.748V5673H234.748V5739ZM233.748 5673V5739H168.248V5673H233.748ZM234.748 5672H300.748V5606.5H234.748V5672ZM233.748 5606.5V5672H168.248V5606.5H233.748ZM234.748 5605.5H300.748V5539.5H234.748V5605.5ZM233.748 5539.5V5605.5H168.248V5539.5H233.748ZM234.748 5538.5H300.748V5473H234.748V5538.5ZM233.748 5473V5538.5H168.248V5473H233.748ZM234.748 5472H300.748V5406H234.748V5472ZM233.748 5406V5472H168.248V5406H233.748ZM234.748 5405H300.748V5339.5H234.748V5405ZM233.748 5339.5V5405H168.248V5339.5H233.748ZM234.748 5338.5H300.748V5272.5H234.748V5338.5ZM233.748 5272.5V5338.5H168.248V5272.5H233.748ZM234.748 5271.5H300.748V5206H234.748V5271.5ZM233.748 5206V5271.5H168.248V5206H233.748ZM234.748 5205H300.748V5139H234.748V5205ZM233.748 5139V5205H168.248V5139H233.748ZM234.748 5138H300.748V5072.5H234.748V5138ZM233.748 5072.5V5138H168.248V5072.5H233.748ZM234.748 5071.5H300.748V5005.5H234.748V5071.5ZM233.748 5005.5V5071.5H168.248V5005.5H233.748ZM234.748 5004.5H300.748V4939H234.748V5004.5ZM233.748 4939V5004.5H168.248V4939H233.748ZM234.748 4938H300.748V4872H234.748V4938ZM233.748 4872V4938H168.248V4872H233.748ZM234.748 4871H300.748V4805.5H234.748V4871ZM233.748 4805.5V4871H168.248V4805.5H233.748ZM34.748 4805.5H100.248V4871H34.748V4805.5ZM34.748 4872H100.248V4938H34.748V4872ZM101.248 4872V4938H167.248V4872H101.248ZM34.748 4939H100.248V5004.5H34.748V4939ZM101.248 4939V5004.5H167.248V4939H101.248ZM34.748 5005.5H100.248V5071.5H34.748V5005.5ZM101.248 5005.5V5071.5H167.248V5005.5H101.248ZM34.748 5072.5H100.248V5138H34.748V5072.5ZM101.248 5072.5V5138H167.248V5072.5H101.248ZM34.748 5139H100.248V5205H34.748V5139ZM101.248 5139V5205H167.248V5139H101.248ZM34.748 5206H100.248V5271.5H34.748V5206ZM101.248 5206V5271.5H167.248V5206H101.248ZM34.748 5272.5H100.248V5338.5H34.748V5272.5ZM101.248 5272.5V5338.5H167.248V5272.5H101.248ZM34.748 5339.5H100.248V5405H34.748V5339.5ZM101.248 5339.5V5405H167.248V5339.5H101.248ZM34.748 5406H100.248V5472H34.748V5406ZM101.248 5406V5472H167.248V5406H101.248ZM34.748 5473H100.248V5538.5H34.748V5473ZM101.248 5473V5538.5H167.248V5473H101.248ZM34.748 5539.5H100.248V5605.5H34.748V5539.5ZM101.248 5539.5V5605.5H167.248V5539.5H101.248ZM34.748 5606.5H100.248V5672H34.748V5606.5ZM101.248 5606.5V5672H167.248V5606.5H101.248ZM34.748 5673H100.248V5739H34.748V5673ZM101.248 5673V5739H167.248V5673H101.248ZM34.748 5740H100.248V5805.5H34.748V5740ZM101.248 5740V5805.5H167.248V5740H101.248ZM34.748 5806.5H100.248V5872.5H34.748V5806.5ZM101.248 5806.5V5872.5H167.248V5806.5H101.248ZM34.748 5873.5H100.248V5939H34.748V5873.5ZM101.248 5873.5V5939H167.248V5873.5H101.248ZM34.748 5940H100.248V6006H34.748V5940ZM101.248 5940V6006H167.248V5940H101.248ZM34.748 6007H100.248V6072.5H34.748V6007ZM101.248 6007V6072.5H167.248V6007H101.248ZM34.748 6073.5H100.248V6139.5H34.748V6073.5ZM101.248 6073.5V6139.5H167.248V6073.5H101.248ZM34.748 6140.5H100.248V6206H34.748V6140.5ZM101.248 6140.5V6206H167.248V6140.5H101.248ZM34.748 6207H100.248V6273H34.748V6207ZM101.248 6207V6273H167.248V6207H101.248ZM34.748 6274H100.248V6339.5H34.748V6274ZM101.248 6274V6339.5H167.248V6274H101.248ZM101.248 4805.5V4871H167.248V4805.5H101.248Z" fill="url(#paint2_linear_3915_833)"/>
<path fill-rule="evenodd" clip-rule="evenodd" d="M33.748 1591V1567.5H0V1566.5H33.748V1501H0V1500H33.748V1434H0V1433H33.748V1367.5H0V1366.5H33.748V1300.5H0V1299.5H33.748V1234H0V1233H33.748V1167H0V1166H33.748V1100.5H0V1099.5H33.748V1033.5H0V1032.5H33.748V967H0V966H33.748V900H0V899H33.748V833.5H0V832.5H33.748V766.5H0V765.5H33.748V700H0V699H33.748V633H0V632H33.748V566.5H0V565.5H33.748V499.5H0V498.5H33.748V433H0V432H33.748V366H0V365H33.748V299.5H0V298.5H33.748V232.5H0V231.5H33.748V166H0V165H33.748V99H0V98H33.748V32.5H0V31.5H33.748V0H34.748V31.5H100.248V0H101.248V31.5H167.248V0H168.248V31.5H233.748V0H234.748V31.5H300.748V0H301.748V31.5H367.248V0H368.248V31.5H434.248V0H435.248V31.5H500.748V0H501.748V31.5H567.748V0H568.748V31.5H634.248V0H635.248V31.5H701.248V0H702.248V31.5H767.748V0H768.748V31.5H834.748V0H835.748V31.5H901.248V0H902.248V31.5H968.248V0H969.248V31.5H1034.75V0H1035.75V31.5H1101.75V0H1102.75V31.5H1168.25V0H1169.25V31.5H1235.25V0H1236.25V31.5H1301.75V0H1302.75V31.5H1336.5V32.5H1302.75V98H1336.5V99H1302.75V165H1336.5V166H1302.75V231.5H1336.5V232.5H1302.75V298.5H1336.5V299.5H1302.75V365H1336.5V366H1302.75V432H1336.5V433H1302.75V498.5H1336.5V499.5H1302.75V565.5H1336.5V566.5H1302.75V632H1336.5V633H1302.75V699H1336.5V700H1302.75V765.5H1336.5V766.5H1302.75V832.5H1336.5V833.5H1302.75V899H1336.5V900H1302.75V966H1336.5V967H1302.75V1032.5H1336.5V1033.5H1302.75V1099.5H1336.5V1100.5H1302.75V1166H1336.5V1167H1302.75V1233H1336.5V1234H1302.75V1299.5H1336.5V1300.5H1302.75V1366.5H1336.5V1367.5H1302.75V1433H1336.5V1434H1302.75V1500H1336.5V1501H1302.75V1566.5H1336.5V1567.5H1302.75V1591H1301.75V1567.5H1236.25V1591H1235.25V1567.5H1169.25V1591H1168.25V1567.5H1102.75V1591H1101.75V1567.5H1035.75V1591H1034.75V1567.5H969.248V1591H968.248V1567.5H902.248V1591H901.248V1567.5H835.748V1591H834.748V1567.5H768.748V1591H767.748V1567.5H702.248V1591H701.248V1567.5H635.248V1591H634.248V1567.5H568.748V1591H567.748V1567.5H501.748V1591H500.748V1567.5H435.248V1591H434.248V1567.5H368.248V1591H367.248V1567.5H301.748V1591H300.748V1567.5H234.748V1591H233.748V1567.5H168.248V1591H167.248V1567.5H101.248V1591H100.248V1567.5H34.748V1591H33.748ZM1301.75 1566.5V1501H1236.25V1566.5H1301.75ZM1301.75 1500V1434H1236.25V1500H1301.75ZM1301.75 1433V1367.5H1236.25V1433H1301.75ZM1301.75 1366.5V1300.5H1236.25V1366.5H1301.75ZM1301.75 1299.5V1234H1236.25V1299.5H1301.75ZM1301.75 1233V1167H1236.25V1233H1301.75ZM1301.75 1166V1100.5H1236.25V1166H1301.75ZM1301.75 1099.5V1033.5H1236.25V1099.5H1301.75ZM1301.75 1032.5V967H1236.25V1032.5H1301.75ZM1301.75 966V900H1236.25V966H1301.75ZM1301.75 899V833.5H1236.25V899H1301.75ZM1301.75 832.5V766.5H1236.25V832.5H1301.75ZM1301.75 765.5V700H1236.25V765.5H1301.75ZM1301.75 699V633H1236.25V699H1301.75ZM1301.75 632V566.5H1236.25V632H1301.75ZM1301.75 565.5V499.5H1236.25V565.5H1301.75ZM1301.75 498.5V433H1236.25V498.5H1301.75ZM1301.75 432V366H1236.25V432H1301.75ZM1301.75 365V299.5H1236.25V365H1301.75ZM1301.75 298.5V232.5H1236.25V298.5H1301.75ZM1301.75 231.5V166H1236.25V231.5H1301.75ZM1301.75 165V99H1236.25V165H1301.75ZM1301.75 98V32.5H1236.25V98H1301.75ZM1102.75 32.5H1168.25V98H1102.75V32.5ZM1102.75 99H1168.25V165H1102.75V99ZM1169.25 99V165H1235.25V99H1169.25ZM1102.75 166H1168.25V231.5H1102.75V166ZM1169.25 166V231.5H1235.25V166H1169.25ZM1102.75 232.5H1168.25V298.5H1102.75V232.5ZM1169.25 232.5V298.5H1235.25V232.5H1169.25ZM1102.75 299.5H1168.25V365H1102.75V299.5ZM1169.25 299.5V365H1235.25V299.5H1169.25ZM1102.75 366H1168.25V432H1102.75V366ZM1169.25 366V432H1235.25V366H1169.25ZM1102.75 433H1168.25V498.5H1102.75V433ZM1169.25 433V498.5H1235.25V433H1169.25ZM1102.75 499.5H1168.25V565.5H1102.75V499.5ZM1169.25 499.5V565.5H1235.25V499.5H1169.25ZM1102.75 566.5H1168.25V632H1102.75V566.5ZM1169.25 566.5V632H1235.25V566.5H1169.25ZM1102.75 633H1168.25V699H1102.75V633ZM1169.25 633V699H1235.25V633H1169.25ZM1102.75 700H1168.25V765.5H1102.75V700ZM1169.25 700V765.5H1235.25V700H1169.25ZM1102.75 766.5H1168.25V832.5H1102.75V766.5ZM1169.25 766.5V832.5H1235.25V766.5H1169.25ZM1102.75 833.5H1168.25V899H1102.75V833.5ZM1169.25 833.5V899H1235.25V833.5H1169.25ZM1102.75 900H1168.25V966H1102.75V900ZM1169.25 900V966H1235.25V900H1169.25ZM1102.75 967H1168.25V1032.5H1102.75V967ZM1169.25 967V1032.5H1235.25V967H1169.25ZM1102.75 1033.5H1168.25V1099.5H1102.75V1033.5ZM1169.25 1033.5V1099.5H1235.25V1033.5H1169.25ZM1102.75 1100.5H1168.25V1166H1102.75V1100.5ZM1169.25 1100.5V1166H1235.25V1100.5H1169.25ZM1102.75 1167H1168.25V1233H1102.75V1167ZM1169.25 1167V1233H1235.25V1167H1169.25ZM1102.75 1234H1168.25V1299.5H1102.75V1234ZM1169.25 1234V1299.5H1235.25V1234H1169.25ZM1102.75 1300.5H1168.25V1366.5H1102.75V1300.5ZM1169.25 1300.5V1366.5H1235.25V1300.5H1169.25ZM1102.75 1367.5H1168.25V1433H1102.75V1367.5ZM1169.25 1367.5V1433H1235.25V1367.5H1169.25ZM1102.75 1434H1168.25V1500H1102.75V1434ZM1169.25 1434V1500H1235.25V1434H1169.25ZM1102.75 1501H1168.25V1566.5H1102.75V1501ZM1169.25 1501V1566.5H1235.25V1501H1169.25ZM1169.25 32.5V98H1235.25V32.5H1169.25ZM1035.75 1566.5H1101.75V1501H1035.75V1566.5ZM1034.75 1501V1566.5H969.248V1501H1034.75ZM1035.75 1500H1101.75V1434H1035.75V1500ZM1034.75 1434V1500H969.248V1434H1034.75ZM1035.75 1433H1101.75V1367.5H1035.75V1433ZM1034.75 1367.5V1433H969.248V1367.5H1034.75ZM1035.75 1366.5H1101.75V1300.5H1035.75V1366.5ZM1034.75 1300.5V1366.5H969.248V1300.5H1034.75ZM1035.75 1299.5H1101.75V1234H1035.75V1299.5ZM1034.75 1234V1299.5H969.248V1234H1034.75ZM1035.75 1233H1101.75V1167H1035.75V1233ZM1034.75 1167V1233H969.248V1167H1034.75ZM1035.75 1166H1101.75V1100.5H1035.75V1166ZM1034.75 1100.5V1166H969.248V1100.5H1034.75ZM1035.75 1099.5H1101.75V1033.5H1035.75V1099.5ZM1034.75 1033.5V1099.5H969.248V1033.5H1034.75ZM1035.75 1032.5H1101.75V967H1035.75V1032.5ZM1034.75 967V1032.5H969.248V967H1034.75ZM1035.75 966H1101.75V900H1035.75V966ZM1034.75 900V966H969.248V900H1034.75ZM1035.75 899H1101.75V833.5H1035.75V899ZM1034.75 833.5V899H969.248V833.5H1034.75ZM1035.75 832.5H1101.75V766.5H1035.75V832.5ZM1034.75 766.5V832.5H969.248V766.5H1034.75ZM1035.75 765.5H1101.75V700H1035.75V765.5ZM1034.75 700V765.5H969.248V700H1034.75ZM1035.75 699H1101.75V633H1035.75V699ZM1034.75 633V699H969.248V633H1034.75ZM1035.75 632H1101.75V566.5H1035.75V632ZM1034.75 566.5V632H969.248V566.5H1034.75ZM1035.75 565.5H1101.75V499.5H1035.75V565.5ZM1034.75 499.5V565.5H969.248V499.5H1034.75ZM1035.75 498.5H1101.75V433H1035.75V498.5ZM1034.75 433V498.5H969.248V433H1034.75ZM1035.75 432H1101.75V366H1035.75V432ZM1034.75 366V432H969.248V366H1034.75ZM1035.75 365H1101.75V299.5H1035.75V365ZM1034.75 299.5V365H969.248V299.5H1034.75ZM1035.75 298.5H1101.75V232.5H1035.75V298.5ZM1034.75 232.5V298.5H969.248V232.5H1034.75ZM1035.75 231.5H1101.75V166H1035.75V231.5ZM1034.75 166V231.5H969.248V166H1034.75ZM1035.75 165H1101.75V99H1035.75V165ZM1034.75 99V165H969.248V99H1034.75ZM1035.75 98H1101.75V32.5H1035.75V98ZM1034.75 32.5V98H969.248V32.5H1034.75ZM835.748 32.5H901.248V98H835.748V32.5ZM835.748 99H901.248V165H835.748V99ZM902.248 99V165H968.248V99H902.248ZM835.748 166H901.248V231.5H835.748V166ZM902.248 166V231.5H968.248V166H902.248ZM835.748 232.5H901.248V298.5H835.748V232.5ZM902.248 232.5V298.5H968.248V232.5H902.248ZM835.748 299.5H901.248V365H835.748V299.5ZM902.248 299.5V365H968.248V299.5H902.248ZM835.748 366H901.248V432H835.748V366ZM902.248 366V432H968.248V366H902.248ZM835.748 433H901.248V498.5H835.748V433ZM902.248 433V498.5H968.248V433H902.248ZM835.748 499.5H901.248V565.5H835.748V499.5ZM902.248 499.5V565.5H968.248V499.5H902.248ZM835.748 566.5H901.248V632H835.748V566.5ZM902.248 566.5V632H968.248V566.5H902.248ZM835.748 633H901.248V699H835.748V633ZM902.248 633V699H968.248V633H902.248ZM835.748 700H901.248V765.5H835.748V700ZM902.248 700V765.5H968.248V700H902.248ZM835.748 766.5H901.248V832.5H835.748V766.5ZM902.248 766.5V832.5H968.248V766.5H902.248ZM835.748 833.5H901.248V899H835.748V833.5ZM902.248 833.5V899H968.248V833.5H902.248ZM835.748 900H901.248V966H835.748V900ZM902.248 900V966H968.248V900H902.248ZM835.748 967H901.248V1032.5H835.748V967ZM902.248 967V1032.5H968.248V967H902.248ZM835.748 1033.5H901.248V1099.5H835.748V1033.5ZM902.248 1033.5V1099.5H968.248V1033.5H902.248ZM835.748 1100.5H901.248V1166H835.748V1100.5ZM902.248 1100.5V1166H968.248V1100.5H902.248ZM835.748 1167H901.248V1233H835.748V1167ZM902.248 1167V1233H968.248V1167H902.248ZM835.748 1234H901.248V1299.5H835.748V1234ZM902.248 1234V1299.5H968.248V1234H902.248ZM835.748 1300.5H901.248V1366.5H835.748V1300.5ZM902.248 1300.5V1366.5H968.248V1300.5H902.248ZM835.748 1367.5H901.248V1433H835.748V1367.5ZM902.248 1367.5V1433H968.248V1367.5H902.248ZM835.748 1434H901.248V1500H835.748V1434ZM902.248 1434V1500H968.248V1434H902.248ZM835.748 1501H901.248V1566.5H835.748V1501ZM902.248 1501V1566.5H968.248V1501H902.248ZM902.248 32.5V98H968.248V32.5H902.248ZM768.748 1566.5H834.748V1501H768.748V1566.5ZM767.748 1501V1566.5H702.248V1501H767.748ZM768.748 1500H834.748V1434H768.748V1500ZM767.748 1434V1500H702.248V1434H767.748ZM768.748 1433H834.748V1367.5H768.748V1433ZM767.748 1367.5V1433H702.248V1367.5H767.748ZM768.748 1366.5H834.748V1300.5H768.748V1366.5ZM767.748 1300.5V1366.5H702.248V1300.5H767.748ZM768.748 1299.5H834.748V1234H768.748V1299.5ZM767.748 1234V1299.5H702.248V1234H767.748ZM768.748 1233H834.748V1167H768.748V1233ZM767.748 1167V1233H702.248V1167H767.748ZM768.748 1166H834.748V1100.5H768.748V1166ZM767.748 1100.5V1166H702.248V1100.5H767.748ZM768.748 1099.5H834.748V1033.5H768.748V1099.5ZM767.748 1033.5V1099.5H702.248V1033.5H767.748ZM768.748 1032.5H834.748V967H768.748V1032.5ZM767.748 967V1032.5H702.248V967H767.748ZM768.748 966H834.748V900H768.748V966ZM767.748 900V966H702.248V900H767.748ZM768.748 899H834.748V833.5H768.748V899ZM767.748 833.5V899H702.248V833.5H767.748ZM768.748 832.5H834.748V766.5H768.748V832.5ZM767.748 766.5V832.5H702.248V766.5H767.748ZM768.748 765.5H834.748V700H768.748V765.5ZM767.748 700V765.5H702.248V700H767.748ZM768.748 699H834.748V633H768.748V699ZM767.748 633V699H702.248V633H767.748ZM768.748 632H834.748V566.5H768.748V632ZM767.748 566.5V632H702.248V566.5H767.748ZM768.748 565.5H834.748V499.5H768.748V565.5ZM767.748 499.5V565.5H702.248V499.5H767.748ZM768.748 498.5H834.748V433H768.748V498.5ZM767.748 433V498.5H702.248V433H767.748ZM768.748 432H834.748V366H768.748V432ZM767.748 366V432H702.248V366H767.748ZM768.748 365H834.748V299.5H768.748V365ZM767.748 299.5V365H702.248V299.5H767.748ZM768.748 298.5H834.748V232.5H768.748V298.5ZM767.748 232.5V298.5H702.248V232.5H767.748ZM768.748 231.5H834.748V166H768.748V231.5ZM767.748 166V231.5H702.248V166H767.748ZM768.748 165H834.748V99H768.748V165ZM767.748 99V165H702.248V99H767.748ZM768.748 98H834.748V32.5H768.748V98ZM767.748 32.5V98H702.248V32.5H767.748ZM568.748 32.5H634.248V98H568.748V32.5ZM568.748 99H634.248V165H568.748V99ZM635.248 99V165H701.248V99H635.248ZM568.748 166H634.248V231.5H568.748V166ZM635.248 166V231.5H701.248V166H635.248ZM568.748 232.5H634.248V298.5H568.748V232.5ZM635.248 232.5V298.5H701.248V232.5H635.248ZM568.748 299.5H634.248V365H568.748V299.5ZM635.248 299.5V365H701.248V299.5H635.248ZM568.748 366H634.248V432H568.748V366ZM635.248 366V432H701.248V366H635.248ZM568.748 433H634.248V498.5H568.748V433ZM635.248 433V498.5H701.248V433H635.248ZM568.748 499.5H634.248V565.5H568.748V499.5ZM635.248 499.5V565.5H701.248V499.5H635.248ZM568.748 566.5H634.248V632H568.748V566.5ZM635.248 566.5V632H701.248V566.5H635.248ZM568.748 633H634.248V699H568.748V633ZM635.248 633V699H701.248V633H635.248ZM568.748 700H634.248V765.5H568.748V700ZM635.248 700V765.5H701.248V700H635.248ZM568.748 766.5H634.248V832.5H568.748V766.5ZM635.248 766.5V832.5H701.248V766.5H635.248ZM568.748 833.5H634.248V899H568.748V833.5ZM635.248 833.5V899H701.248V833.5H635.248ZM568.748 900H634.248V966H568.748V900ZM635.248 900V966H701.248V900H635.248ZM568.748 967H634.248V1032.5H568.748V967ZM635.248 967V1032.5H701.248V967H635.248ZM568.748 1033.5H634.248V1099.5H568.748V1033.5ZM635.248 1033.5V1099.5H701.248V1033.5H635.248ZM568.748 1100.5H634.248V1166H568.748V1100.5ZM635.248 1100.5V1166H701.248V1100.5H635.248ZM568.748 1167H634.248V1233H568.748V1167ZM635.248 1167V1233H701.248V1167H635.248ZM568.748 1234H634.248V1299.5H568.748V1234ZM635.248 1234V1299.5H701.248V1234H635.248ZM568.748 1300.5H634.248V1366.5H568.748V1300.5ZM635.248 1300.5V1366.5H701.248V1300.5H635.248ZM568.748 1367.5H634.248V1433H568.748V1367.5ZM635.248 1367.5V1433H701.248V1367.5H635.248ZM568.748 1434H634.248V1500H568.748V1434ZM635.248 1434V1500H701.248V1434H635.248ZM568.748 1501H634.248V1566.5H568.748V1501ZM635.248 1501V1566.5H701.248V1501H635.248ZM635.248 32.5V98H701.248V32.5H635.248ZM501.748 1566.5H567.748V1501H501.748V1566.5ZM500.748 1501V1566.5H435.248V1501H500.748ZM501.748 1500H567.748V1434H501.748V1500ZM500.748 1434V1500H435.248V1434H500.748ZM501.748 1433H567.748V1367.5H501.748V1433ZM500.748 1367.5V1433H435.248V1367.5H500.748ZM501.748 1366.5H567.748V1300.5H501.748V1366.5ZM500.748 1300.5V1366.5H435.248V1300.5H500.748ZM501.748 1299.5H567.748V1234H501.748V1299.5ZM500.748 1234V1299.5H435.248V1234H500.748ZM501.748 1233H567.748V1167H501.748V1233ZM500.748 1167V1233H435.248V1167H500.748ZM501.748 1166H567.748V1100.5H501.748V1166ZM500.748 1100.5V1166H435.248V1100.5H500.748ZM501.748 1099.5H567.748V1033.5H501.748V1099.5ZM500.748 1033.5V1099.5H435.248V1033.5H500.748ZM501.748 1032.5H567.748V967H501.748V1032.5ZM500.748 967V1032.5H435.248V967H500.748ZM501.748 966H567.748V900H501.748V966ZM500.748 900V966H435.248V900H500.748ZM501.748 899H567.748V833.5H501.748V899ZM500.748 833.5V899H435.248V833.5H500.748ZM501.748 832.5H567.748V766.5H501.748V832.5ZM500.748 766.5V832.5H435.248V766.5H500.748ZM501.748 765.5H567.748V700H501.748V765.5ZM500.748 700V765.5H435.248V700H500.748ZM501.748 699H567.748V633H501.748V699ZM500.748 633V699H435.248V633H500.748ZM501.748 632H567.748V566.5H501.748V632ZM500.748 566.5V632H435.248V566.5H500.748ZM501.748 565.5H567.748V499.5H501.748V565.5ZM500.748 499.5V565.5H435.248V499.5H500.748ZM501.748 498.5H567.748V433H501.748V498.5ZM500.748 433V498.5H435.248V433H500.748ZM501.748 432H567.748V366H501.748V432ZM500.748 366V432H435.248V366H500.748ZM501.748 365H567.748V299.5H501.748V365ZM500.748 299.5V365H435.248V299.5H500.748ZM501.748 298.5H567.748V232.5H501.748V298.5ZM500.748 232.5V298.5H435.248V232.5H500.748ZM501.748 231.5H567.748V166H501.748V231.5ZM500.748 166V231.5H435.248V166H500.748ZM501.748 165H567.748V99H501.748V165ZM500.748 99V165H435.248V99H500.748ZM501.748 98H567.748V32.5H501.748V98ZM500.748 32.5V98H435.248V32.5H500.748ZM301.748 32.5H367.248V98H301.748V32.5ZM301.748 99H367.248V165H301.748V99ZM368.248 99V165H434.248V99H368.248ZM301.748 166H367.248V231.5H301.748V166ZM368.248 166V231.5H434.248V166H368.248ZM301.748 232.5H367.248V298.5H301.748V232.5ZM368.248 232.5V298.5H434.248V232.5H368.248ZM301.748 299.5H367.248V365H301.748V299.5ZM368.248 299.5V365H434.248V299.5H368.248ZM301.748 366H367.248V432H301.748V366ZM368.248 366V432H434.248V366H368.248ZM301.748 433H367.248V498.5H301.748V433ZM368.248 433V498.5H434.248V433H368.248ZM301.748 499.5H367.248V565.5H301.748V499.5ZM368.248 499.5V565.5H434.248V499.5H368.248ZM301.748 566.5H367.248V632H301.748V566.5ZM368.248 566.5V632H434.248V566.5H368.248ZM301.748 633H367.248V699H301.748V633ZM368.248 633V699H434.248V633H368.248ZM301.748 700H367.248V765.5H301.748V700ZM368.248 700V765.5H434.248V700H368.248ZM301.748 766.5H367.248V832.5H301.748V766.5ZM368.248 766.5V832.5H434.248V766.5H368.248ZM301.748 833.5H367.248V899H301.748V833.5ZM368.248 833.5V899H434.248V833.5H368.248ZM301.748 900H367.248V966H301.748V900ZM368.248 900V966H434.248V900H368.248ZM301.748 967H367.248V1032.5H301.748V967ZM368.248 967V1032.5H434.248V967H368.248ZM301.748 1033.5H367.248V1099.5H301.748V1033.5ZM368.248 1033.5V1099.5H434.248V1033.5H368.248ZM301.748 1100.5H367.248V1166H301.748V1100.5ZM368.248 1100.5V1166H434.248V1100.5H368.248ZM301.748 1167H367.248V1233H301.748V1167ZM368.248 1167V1233H434.248V1167H368.248ZM301.748 1234H367.248V1299.5H301.748V1234ZM368.248 1234V1299.5H434.248V1234H368.248ZM301.748 1300.5H367.248V1366.5H301.748V1300.5ZM368.248 1300.5V1366.5H434.248V1300.5H368.248ZM301.748 1367.5H367.248V1433H301.748V1367.5ZM368.248 1367.5V1433H434.248V1367.5H368.248ZM301.748 1434H367.248V1500H301.748V1434ZM368.248 1434V1500H434.248V1434H368.248ZM301.748 1501H367.248V1566.5H301.748V1501ZM368.248 1501V1566.5H434.248V1501H368.248ZM368.248 32.5V98H434.248V32.5H368.248ZM234.748 1566.5H300.748V1501H234.748V1566.5ZM233.748 1501V1566.5H168.248V1501H233.748ZM234.748 1500H300.748V1434H234.748V1500ZM233.748 1434V1500H168.248V1434H233.748ZM234.748 1433H300.748V1367.5H234.748V1433ZM233.748 1367.5V1433H168.248V1367.5H233.748ZM234.748 1366.5H300.748V1300.5H234.748V1366.5ZM233.748 1300.5V1366.5H168.248V1300.5H233.748ZM234.748 1299.5H300.748V1234H234.748V1299.5ZM233.748 1234V1299.5H168.248V1234H233.748ZM234.748 1233H300.748V1167H234.748V1233ZM233.748 1167V1233H168.248V1167H233.748ZM234.748 1166H300.748V1100.5H234.748V1166ZM233.748 1100.5V1166H168.248V1100.5H233.748ZM234.748 1099.5H300.748V1033.5H234.748V1099.5ZM233.748 1033.5V1099.5H168.248V1033.5H233.748ZM234.748 1032.5H300.748V967H234.748V1032.5ZM233.748 967V1032.5H168.248V967H233.748ZM234.748 966H300.748V900H234.748V966ZM233.748 900V966H168.248V900H233.748ZM234.748 899H300.748V833.5H234.748V899ZM233.748 833.5V899H168.248V833.5H233.748ZM234.748 832.5H300.748V766.5H234.748V832.5ZM233.748 766.5V832.5H168.248V766.5H233.748ZM234.748 765.5H300.748V700H234.748V765.5ZM233.748 700V765.5H168.248V700H233.748ZM234.748 699H300.748V633H234.748V699ZM233.748 633V699H168.248V633H233.748ZM234.748 632H300.748V566.5H234.748V632ZM233.748 566.5V632H168.248V566.5H233.748ZM234.748 565.5H300.748V499.5H234.748V565.5ZM233.748 499.5V565.5H168.248V499.5H233.748ZM234.748 498.5H300.748V433H234.748V498.5ZM233.748 433V498.5H168.248V433H233.748ZM234.748 432H300.748V366H234.748V432ZM233.748 366V432H168.248V366H233.748ZM234.748 365H300.748V299.5H234.748V365ZM233.748 299.5V365H168.248V299.5H233.748ZM234.748 298.5H300.748V232.5H234.748V298.5ZM233.748 232.5V298.5H168.248V232.5H233.748ZM234.748 231.5H300.748V166H234.748V231.5ZM233.748 166V231.5H168.248V166H233.748ZM234.748 165H300.748V99H234.748V165ZM233.748 99V165H168.248V99H233.748ZM234.748 98H300.748V32.5H234.748V98ZM233.748 32.5V98H168.248V32.5H233.748ZM34.748 32.5H100.248V98H34.748V32.5ZM34.748 99H100.248V165H34.748V99ZM101.248 99V165H167.248V99H101.248ZM34.748 166H100.248V231.5H34.748V166ZM101.248 166V231.5H167.248V166H101.248ZM34.748 232.5H100.248V298.5H34.748V232.5ZM101.248 232.5V298.5H167.248V232.5H101.248ZM34.748 299.5H100.248V365H34.748V299.5ZM101.248 299.5V365H167.248V299.5H101.248ZM34.748 366H100.248V432H34.748V366ZM101.248 366V432H167.248V366H101.248ZM34.748 433H100.248V498.5H34.748V433ZM101.248 433V498.5H167.248V433H101.248ZM34.748 499.5H100.248V565.5H34.748V499.5ZM101.248 499.5V565.5H167.248V499.5H101.248ZM34.748 566.5H100.248V632H34.748V566.5ZM101.248 566.5V632H167.248V566.5H101.248ZM34.748 633H100.248V699H34.748V633ZM101.248 633V699H167.248V633H101.248ZM34.748 700H100.248V765.5H34.748V700ZM101.248 700V765.5H167.248V700H101.248ZM34.748 766.5H100.248V832.5H34.748V766.5ZM101.248 766.5V832.5H167.248V766.5H101.248ZM34.748 833.5H100.248V899H34.748V833.5ZM101.248 833.5V899H167.248V833.5H101.248ZM34.748 900H100.248V966H34.748V900ZM101.248 900V966H167.248V900H101.248ZM34.748 967H100.248V1032.5H34.748V967ZM101.248 967V1032.5H167.248V967H101.248ZM34.748 1033.5H100.248V1099.5H34.748V1033.5ZM101.248 1033.5V1099.5H167.248V1033.5H101.248ZM34.748 1100.5H100.248V1166H34.748V1100.5ZM101.248 1100.5V1166H167.248V1100.5H101.248ZM34.748 1167H100.248V1233H34.748V1167ZM101.248 1167V1233H167.248V1167H101.248ZM34.748 1234H100.248V1299.5H34.748V1234ZM101.248 1234V1299.5H167.248V1234H101.248ZM34.748 1300.5H100.248V1366.5H34.748V1300.5ZM101.248 1300.5V1366.5H167.248V1300.5H101.248ZM34.748 1367.5H100.248V1433H34.748V1367.5ZM101.248 1367.5V1433H167.248V1367.5H101.248ZM34.748 1434H100.248V1500H34.748V1434ZM101.248 1434V1500H167.248V1434H101.248ZM34.748 1501H100.248V1566.5H34.748V1501ZM101.248 1501V1566.5H167.248V1501H101.248ZM101.248 32.5V98H167.248V32.5H101.248Z" fill="url(#paint3_linear_3915_833)"/>
<defs>
<linearGradient id="paint0_linear_3915_833" x1="668.25" y1="1591" x2="668.25" y2="3182" gradientUnits="userSpaceOnUse">
<stop stop-opacity="0"/>
<stop offset="0.498711" stop-color="#6200EE" stop-opacity="0.2"/>
<stop offset="1" stop-color="#666666" stop-opacity="0"/>
</linearGradient>
<linearGradient id="paint1_linear_3915_833" x1="668.25" y1="3182" x2="668.25" y2="4773" gradientUnits="userSpaceOnUse">
<stop stop-opacity="0"/>
<stop offset="0.498711" stop-color="#6200EE" stop-opacity="0.2"/>
<stop offset="1" stop-color="#666666" stop-opacity="0"/>
</linearGradient>
<linearGradient id="paint2_linear_3915_833" x1="668.25" y1="4773" x2="668.25" y2="6364" gradientUnits="userSpaceOnUse">
<stop stop-opacity="0"/>
<stop offset="0.498711" stop-color="#6200EE" stop-opacity="0.2"/>
<stop offset="1" stop-color="#666666" stop-opacity="0"/>
</linearGradient>
<linearGradient id="paint3_linear_3915_833" x1="668.25" y1="0" x2="668.25" y2="1591" gradientUnits="userSpaceOnUse">
<stop stop-opacity="0"/>
<stop offset="0.498711" stop-color="#6200EE" stop-opacity="0.2"/>
<stop offset="1" stop-color="#666666" stop-opacity="0"/>
</linearGradient>
</defs>
</svg>
